<?xml version="1.0" encoding="utf-8"?><svg xmlns="http://www.w3.org/2000/svg" width="1770" height="2341" viewbox="0 0 1170 2341"><path d="M1244.961 1943.602l311.177-126.812 5.15-109.97 54.05-111.601 11.925-123.537 60.837-186.005 67.613-155.586-5.15-37.202-10.05-33.927 6.775-38.837-11.925-45.625 6.775-32.05-60.825-74.413-270.7 94.763 11.937 35.562-25.275 42.35 23.637 72.768-37.212 72.764 52.413 157.226 111.612 59.195c-5.15 1.64-142.025-11.934-142.025-11.934l32.05 65.976-37.2 103.184-43.988 21.993-37.2 11.932-72.766 84.464-54.042 133.359 45.625 131.963h6.782zM100.386 1009.587l276.084 31.588 35.561 175.484-59.659 141.787 33.453 24.327 57.794 160.502L511 1617.919l46.563 28.076 82.119 78.374 95.225 70.894-33.692 72.763 5.615 54.048-11.231 29.946-20.585 57.793-199.58-57.793 5.62-33.691-28.076-37.203 9.355-35.561-272.339-199.57-20.591-50.542-59.658-18.487-1.87-427.461-24.336-61.53 16.846-78.388z" fill="#fff"/><path d="M598.837 1699.075c-1.762-1.65-3.47-3.359-5.18-5.068a243.829 243.829 0 00-6.026-5.898c-7.641-6.865-14.852-5.19-17.597-4.145-2.71 1.015-9.145 4.452-10.273 14.017-1.118 8.488-1.46 16.836-1.777 24.913-.45 11.275-.87 21.923-3.34 32.163l-3.873 17.06h26.104l3.824-7.646c3.627-7.256 7.265-14.58 10.892-21.909a7548.122 7548.122 0 0110.86-21.84v-.006a18.453 18.453 0 00-2.578-20.556l-1.035-1.085zm762.9-105.307l-4.787-2.094c-8.825-3.858-16.837.649-22.137 3.627-1.15.645-2.25 1.343-3.175 1.69-10.788 3.857-16.025 10.942-15.575 20.918.675 19.892 2.8 40.927 6.712 66.225l6.838 44.224 19.3-40.372c3.025-6.312 3.8-11.63 4.375-15.507l.3-1.958a7745.6 7745.6 0 015.675-33.13l2.725-15.811c.2-1.045.662-2.172 1.062-3.31 1.738-4.917 4.363-12.359.9-19.766l-2.212-4.736zm-26.85-194.082c-6.037.684-12.062 1.635-18.087 2.593-16.037 2.544-31.175 4.956-46.65 1.714a77.197 77.197 0 01-2.462-.47 60.29 60.29 0 00-13.6-1.352h-54.234l49.546 27.022c12.837 7.026 27.4 15.043 45.55 14.428 5.025-.112 10.3.597 15.9 1.353 2.325.327 4.638.64 6.938.909l.087.005c8.75.947 17.7 1.425 27.05 1.425 16.588 0 34.4-1.5 54.425-4.54l39.45-5.988-34.687-19.711c-17.313-9.824-40.85-20.655-69.225-17.388zm-919.81-12.441c3.64 0 7.086-1.157 10.26-3.429 1.06-.712 2.06-1.425 3.072-2.128.902-.634 1.801-1.28 2.759-1.914l.687-.493c30.361-23.042 63.673-37.735 101.803-44.912 16.157-3.013 32.348-5.825 48.545-8.633 38.545-6.695 78.402-13.608 117.265-23.267 8.163-1.514 18.72-3.794 28.828-8.003l109.873-45.806-167.866 27.74-28.18 3.442c-28.71 3.52-58.393 7.163-87.694 10.337l-.059.005c-23.827 2.705-50.815 5.762-76.455 17.53-8.296 3.759-16.542 7.68-24.81 11.606-9.199 4.37-18.417 8.745-27.841 12.964-17.964 8.164-25.445 20.469-24.244 39.872.03.787.113 1.504.23 2.213v12.876h13.828zm1066.26-21.646c-11.224-8.349-24.887-13.648-40.537-15.708-10.012-1.377-20.05-2.656-30.087-3.945a15.614 15.614 0 007.737-2.755 23.434 23.434 0 009.488-12.421l1.312-3.935-1.062-4.005a109.228 109.228 0 01-1.163-4.857c-.437-1.978-.9-3.947-1.412-5.904l-.65-2.427-80.775-113.316-23.825-20.884 1.125.63c4.85 2.72 9.75 5.377 14.65 8.038 4.8 2.603 9.612 5.205 14.25 7.813 1.987 1.137 8.062 4.613 15.6 2.46l18.162-5.2-10.45-15.737c-12.975-19.546-49.563-45.83-81.85-69.018-16.987-12.203-34.55-24.816-39.8-30.528a38.648 38.648 0 00-3.695-3.6c-.376-.325-.752-.65-1.109-1l-1.802-1.812-2.339-1.038a233.03 233.03 0 00-30.482-11.062c.643.137 1.308.2 1.952.312 10.923 2.05 20.205 4.875 29.229 8.888 20.609 9.137 41.421 20.075 63.584 33.443a89.565 89.565 0 0018.925 11.079l56.85 24.36-41.063-46.245c-44.212-49.825-111.724-116.163-182.007-149.213-.757-.387-1.548-.7-2.363-.937l-1.142-.363c-20.694-6.337-41.905-5.312-66.773 3.175l-.137.05c-14.34 5.063-16.64 16.213-13.975 25.113 5.503 17.6 5.386 36.012 5.263 55.5l-.043 8.7c0 10.2 4.897 17.687 12.998 20.937-2.212.938-4.443 2.275-6.47 4.3-6.65 6.65-6.377 15.713-6.293 18.288l-.274 11.675-4.404-8.863v43.987a32.484 32.484 0 00-.23 13.788l.131 2.744.099.289v.024l.014.02.068.22.185 4.618 2.462 2.433 1.342 2.665-.346.137 2.622 6.812-1.557-.938a15.185 15.185 0 00-13.585-1.084c-3.12 1.25-5.615 3.505-7.495 6.387 2.344-14.434 2.994-29.532-5.751-44.307-.518-.86-1.094-1.675-1.617-2.525l4.614.928 5.269-6.196c5.136-6.049 7.364-16.202 9.37-26.939.235-1.263.42-2.3.61-3.088 5.396-24.062 4.361-48.675-3.339-79.775-11.495-47.05-34.009-83-68.862-109.925-35.625-27.437-81.798-49.487-120.499-57.562-48.916-10.2-99.911 5.05-144.898 18.5l-11.21 3.325c-8.8 2.675-17.232 5.8-24.835 8.725a132.434 132.434 0 00-20.648 11.075c-25.469 16.075-54.327 34.3-79.224 57.937-1.025.925-2.011 1.888-2.974 2.813-.917.912-1.782 1.812-2.807 2.6l-.972.787c-6.582 5.063-12.027 10.113-17.286 15-2.485 2.3-4.955 4.6-7.529 6.875l-4.8 4.325c-26.562 29.013-48.456 62.1-67.802 91.35-9.298 14.15-19.034 29.488-27.075 47.64-3.35 7.622-7.456 14.98-11.806 22.773-5.099 9.131-10.367 18.584-14.542 28.814l-21.016 51.498 42.686-35.663c17.452-14.585 33.902-30.563 50.054-46.237a81.588 81.588 0 012.143-2.03 88.685 88.685 0 002.525-2.407l1.45-1.451c6.831-6.835 13.276-13.3 20.542-17.954 5.625-3.589 11.215-7.245 16.801-10.895 25.9-16.913 50.387-32.9 78.258-42.863l3.495-1.187a461.934 461.934 0 0119.166-7.938l2.915-1.312c10.649-4.725 20.708-9.2 31.396-11.075 7.915-1.438 15.84-2.813 23.74-4.175 12.715-2.2 25.39-4.4 37.89-6.838 27.067-5.112 51.417-9.287 75.415-8.662 23.492.687 47.325 3.687 71.085 8.912a203.908 203.908 0 00-37.935-2.387c-21.083.687-42.89 1.4-64.047 1.637-17.32.213-35.84 2.45-58.414 7.088-70.229 15.1-137.582 48.487-205.917 102.082-28.492 22.384-54.088 48.165-78.848 73.097-7.305 7.358-14.615 14.711-22.051 22.055a42.827 42.827 0 00-5.884 7.525c-21.069 33.237-42.139 66.478-62.984 99.736a77.57 77.57 0 00-9.902 23.491l-9.223 38.003 31.054-23.76c1.28-.977 2.486-1.855 3.619-2.675 2.559-1.86 4.975-3.624 7.461-5.899 24.258-22.559 55.059-33.184 87.665-44.434l1.001-.346c35.987-12.354 75.41-20.069 117.173-22.91 62.061-4.224 122.965-17.818 174.385-30.566 43.511-10.875 76.944-24.464 105.235-42.75 14.555-9.424 29.052-20.385 44.716-33.858-.586 10.704-3.94 20.148-10.19 29.029-13.931 19.785-35.225 30.742-57.769 42.344l-1.216.63c-40.009 20.957-84.585 38.135-136.225 52.495-18.486 5.083-37.856 9.003-56.591 12.792-16.119 3.253-32.774 6.621-49.131 10.773-12.017 3.046-24.532 5.638-36.627 8.143-31.777 6.573-64.633 13.37-95.376 29.542-27.226 14.443-46.752 34.331-58.095 59.233-6.592 14.834-7.994 29.248-4.287 44.073l8.95 35.771 16.777-32.837c1.65-3.218 3.13-6.358 4.556-9.385 3.027-6.425 5.64-11.968 9.135-16.415 14.044-18.589 33.453-30.284 57.76-34.757 14.828-2.807 29.74-4.418 45.532-6.118 7.06-.767 14.136-1.528 21.273-2.412 27.707-3.57 56.193-5.752 83.742-7.866 33.558-2.574 68.251-5.235 102.343-10.42 48.94-7.427 100.478-18.467 145.777-48.755 7.685-5.166 15.532-10.107 23.373-15.054 22.905-14.443 46.592-29.375 66.793-49.95 19.589-20.093 38.647-42.252 50.805-69.288-6.591 37.72 2.876 70.268 28.491 97.026 1.45 1.46 2.915 2.906 4.224 3.97 23.096 20.962 51.601 44.454 87.915 59.825 28.364 11.957 57.7 24.321 88.722 31.591 13.288 3.174 25.525 4.131 37.525 2.866l4.688-.532c28.612-3.233 58.2-6.576 87-5.933 5.762.138 11.512.235 17.25.333 23.025.371 44.775.732 66.712 3.965l54.338 8.022-44.063-32.793zm-319.862-128.374a1150.31 1150.31 0 0038.53 28.389c4.385 3.096 8.686 6.293 12.984 9.487 16.571 12.3 33.72 25.015 54.986 32.505 8.075 2.857 16.35 6.133 24.35 9.302 11.475 4.556 23.362 9.257 35.3 13.002 2.912.978 5.9 1.866 8.925 2.774 2.15.635 4.3 1.28 6.462 1.964l1.425.375c13.6 2.783 27.838 5.43 40.363 7.553-32.05-4.257-64.575-9.193-95.975-17.192-24.85-6.284-41.261-13.838-54.836-25.244-28.613-24.126-51.87-44.311-72.514-62.915zM1223.345 1922.148c-8.565-20.514-16.905-41.495-24.971-61.788l-4.302-10.816c-.19-.424-.342-.874-.503-1.323-.644-1.811-1.513-4.297-4.209-6.498l-2.656-2.174-8.33 10.059c-10.142 16.538-22.657 31.685-38.559 46.64l-4.971 6.133c-12.672 10.953-26.934 17.823-42.042 25.103-8.92 4.301-18.148 8.74-26.987 14.091l-9.678 5.87 11.304.536c4.864.24 9.493.465 14.409.938 37.496 2.945 67.3 10.058 93.814 22.383 10.327 4.77 11.124 13.477 12.041 23.618.298 3.262-.42 4.019-.449 4.044-.132.131-.591.248-1.382.156l-.454-.049-.459.073c-.117.015-1.177.146-4.258-.972-35.434-13.775-72.685-22.656-108.705-31.25a2818.94 2818.94 0 01-31.085-7.53c-.634-.126-1.435-.443-2.245-.74l-2.418-.846-.909.18c-1.678.343-4.638 1.641-5.517 6.495-.728 3.813-2.431 12.754 8.209 15.239 5.635 1.352 11.46 3.442 17.192 5.507 11 3.893 22.309 7.384 33.256 10.758 29.693 9.155 60.397 18.632 86.832 36.982 2.846 2.065 5.537 3.13 9.316 3.452 3.701-.283 7.075-1.845 11.119-3.867 20.215-10.235 26.522-25.898 19.28-47.896-5.34-16.727-3.007-31.714 6.91-44.526 4.01-5.083 4.463-10.981 1.407-17.983zm-385.327 50.087c-14.043 2.206-25.395 3.233-35.723 3.233-10.351 0-18.701-.65-26.23-2.037-3.071-.615-3.487-1.357-3.804-4.082-.132-.996.009-1.358 0-1.363.029-.023.332-.243 1.479-.415 8.476-1.727 16.919-3.691 25.361-5.648 22.959-5.333 46.709-10.85 70.812-11.353v-3.462h3.222c0-.928-.015-1.675.166-2.603l.723-3.658-3.697-.448c-10.713-1.299-19.643-6.699-29.097-12.418a227.42 227.42 0 00-10.165-5.917c-28.457-15.167-49.185-35.6-63.399-62.47-4.521-8.34-10.596-15.728-17.021-23.555-2.5-3.038-5.064-6.153-7.627-9.444l-4.01-5.146-2.005 6.211c-1.197 3.71-2.315 7.314-3.41 10.825-3.11 10.005-6.05 19.448-9.823 28.203-8.023 19.072-7.896 35.035.366 50.22 3.125 5.908 1.919 11.733-3.692 17.788-5.434 5.854-10.795 11.879-16.166 17.92a1590.518 1590.518 0 01-11.012 12.299l-.873.929c-1.953 2.045-4.913 5.136-3.628 10.254.654 2.416.948 5.023 1.26 7.797.82 7.398 1.762 15.776 10.546 21.378.474.282.543.986.346 3.397-.053.791-.116 1.563-.116 2.31v44.224l-.015 1.162c-.058 3.208-.151 7.603 3.667 10.365 8.403 5.616 18.272 7.564 26.86 8.96l.87.148.835-.299c3.94-1.396 5.596-5.444 6.913-8.701.602-1.469 1.217-2.988 1.875-3.848a14.012 14.012 0 001.813-2.958c.224-.435.444-.874.649-1.32 8.306-4.467 15.952-10.018 23.355-15.39 9.838-7.148 19.135-13.895 29.92-18.388 12.003-5.044 23.853-10.947 35.308-16.65 24.713-12.315 50.259-25.04 78.307-29.454l21.728-3.412-21.728-3.419c-23.77-3.73-45.362-4.027-73.14.235zm175.253-13.135c-.141-3.012-1.03-5.19-2.7-6.655-2.026-1.792-4.551-1.895-6.362-1.772h-.029l-.24.01v.008c-.449.025-.897.064-1.358.143l-1.156.136a125.08 125.08 0 01-24.361 2.275c-3.281-.034-6.386 0-9.824-.234h-7.72c-2.456 0-4.911.005-7.021.234h-1.87c-.328 0-.65-.054-.976-.097-.612-.068-1.217-.147-2.51-.068-2.833.561-4.473 2.426-4.874 5.751-.375 6.182 2.896 10.553 8.926 11.983 8.345 2.085 17.124 3.145 26.104 3.145l.234-.015v.015h.058c8.893 0 17.77-.704 27.1-2.134 8.853-1.27 8.697-7.456 8.61-11.147l-.03-1.578zm707.817-1116.325c6.787-2.337 8.887-6.312 9.125-12.637a1981.27 1981.27 0 014.212-52.175c1.875-23.625 3.975-47.263 6.088-72.288-1.875.463-3.05.7-3.975.925-138.275 40.488-286.15 78.388-424.425 118.625-7.025 2.113-.475 13.113 2.337 18.013 21.75 38.137 44.925 73.237 66.213 111.612 1.875 3.263 3.512 4.913 5.85 5.375 1.162 0 4.912-3.037 6.325-3.512 109.262-38.138 218.75-76.275 328.25-113.938zm-20.35-99.675c14.737-.225 22.462 7.725 22.925 23.625.462 14.513-12.4 29.25-25.975 29.488-12.625.237-24.325-11.225-24.8-24.8-.925-14.263 12.875-28.313 27.85-28.313zm-1454.59 267.425c21.992 3.05 43.75 6.088 65.742 9.125 33.691 4.688 67.388 9.125 101.079 13.813.61.175 1.24.25 1.875.237 3.975-.237 4.672-3.75 5.615-7.262a6465.311 6465.311 0 0127.134-88.9c2.11-6.325.235-8.2-5.85-9.838-62.934-16.375-125.87-32.987-188.813-49.587-62.935-16.625-125.87-33.225-188.58-49.85a13.144 13.144 0 00-3.74-.7c-1.87 0-3.041.475-3.745 1.875-.229.462-.464.937-.464 1.4-.287 1-.448 2.012-.468 3.05a9380.128 9380.128 0 01-14.975 139.2c-.7 5.862.468 8.425 4.916 9.6.932.237 2.1.462 3.51.7 65.509 9.125 131.251 18.012 196.764 27.137zM94.3 887.238c6.085-5.863 14.044-5.15 21.06-5.625 14.508 0 21.524 4.912 26.44 18.25 8.184 21.525 4.913 39.775-9.365 52.175-10.541 9.362-26.42 9.362-36.967 0-18.476-16.375-18.95-47.5-1.168-64.8z" fill="#fff"/><path d="M1700.5 743.1c-14.975.237-28.537 14.287-27.837 28.55.7 13.337 12.162 25.037 24.787 24.562 13.337-.237 26.212-14.975 25.975-29.487-.463-16.138-7.95-23.85-22.925-23.625zM115.596 881.612c-7.022.475-14.976-.237-21.06 5.625-18.017 17.3-17.543 48.425 1.172 64.8 10.527 9.363 25.967 9.363 36.968 0 14.268-12.4 17.778-30.65 9.36-52.175-5.151-13.337-12.167-18.25-26.44-18.25z" fill="#414754"/><path d="M1705.186 871.084c13.572-4.682 26.9-10.528 40.702-14.75 7.726-2.327 9.838-6.779 10.297-13.802 4.453-58.956 8.89-118.156 13.572-177.112.704-8.186-.703-9.824-9.12-7.253-44.22 14.032-88.44 27.374-132.891 41.176-13.572 4.208-13.802 4.208-19.891-9.12-22.463-50.54-40.013-102.947-58.497-154.894-3.978-10.987-3.978-20.825.704-30.878 6.549-18.254 2.341-36.738 1.867-55.222-.23-.934-.46-1.867-.46-2.8-4.682-50.77-11.475-101.31-24.803-150.917a586.441 586.441 0 00-48.673-123.771c-22.218-42.11-46.087-83.76-71.821-124.232-11-17.32-22.7-32.99-42.348-41.65-7.021-3.044-14.039-3.978-21.528-4.682-8.658-.933-13.57 2.341-19.187 9.12-9.59 11.705-13.1 28.322-6.78 41.894 18.481 40.013 35.326 80.945 51.47 121.89.936 1.882 2.109 3.75 3.739 6.55-3.74-.23-4.906-2.112-6.084-4.208-29.01-30.19-63.17-54.274-97.324-78.374-46.095-32.76-96.396-58.726-146.466-84.937-6.782-3.504-13.574-5.615-20.825-6.319-12.398-1.393-25.033-2.57-37.432-3.978-19.653-2.341-34.628 8.904-34.628 28.551 0 10.528-4.45 12.869-13.101 13.572-7.726.46-18.251 11.217-19.185 18.714-2.808 23.855 4.678 43.977 22.227 60.364 43.277 40.472 85.162 82.366 127.046 124.231l1.4.704c1.174.948 2.106 2.111 2.81 3.748-.704.23-1.402.23-1.876.23a5.564 5.564 0 01-3.51-2.097c-.23-.244-.464-.474-.464-.704-6.084-3.518-12.403-6.793-18.253-10.771-29.242-19.418-58.018-39.295-87.27-58.252-13.57-8.89-27.843-15.44-44.918-16.617-15.907-1.164-27.378 3.045-38.14 14.031-7.25 7.268-9.829 14.75-8.651 24.588 1.63 14.262 11.225 23.152 21.757 30.405 48.897 32.99 92.646 71.594 133.13 114.407 3.507 3.749 7.247 7.727 11.225 11.002 11.465 9.364 18.483 21.758 25.5 34.626 3.276 5.846 2.108 7.253-4.21 7.253-41.64 0-81.416 11.461-121.426 19.891-16.377 3.505-32.526 9.12-38.374 27.36-6.32 20.365-9.361 31.826 15.673 38.146 49.835 12.408 98.038 29.944 145.065 50.31 4.214 1.867 7.954 4.438 11.464 7.482 11.7 10.068 22.462 21.285 35.328 29.485 36.967 24.1 75.107 46.562 118.858 56.86 5.15 1.163 9.828 3.734 14.735 4.897 4.918 1.408 8.194 4.222 9.128 9.134 2.807 17.306 13.573 27.144 29.716 32.042 2.11.718 3.75 2.111 5.85 2.815 5.141 1.637 7.485 5.386 9.125 10.527a2350.225 2350.225 0 0020.592 69.728c2.568 7.726.233 9.823-6.783 11.935-36.27 10.527-72.3 21.528-108.335 32.515-12.866 3.978-13.101 4.208-6.552 15.913l88.442 159.334c12.402 22.46 12.87 22.46 35.562 10.765 2.344-1.172 5.62-5.151 7.724-1.406 2.11 3.506 5.85 8.658 2.334 12.632-10.991 12.638-18.477 27.38-27.842 40.943-3.042 4.448-3.042 7.256-.458 11.47a3504.5 3504.5 0 0129.244 48.896c1.166 1.87 3.276 4.214 2.806 5.62-3.75 11.934-7.96 23.858-11.934 35.792-6.551-25.967-17.783-48.427-30.884-69.716-17.548-28.077-40.01-52.883-60.36-79.089-3.282-3.974-7.023-7.485-10.769-11.225-19.417-20.123-44.457-32.29-68.084-46.558-10.523-6.319-21.29-10.069-33.224-12.401-36.494-7.726-72.763-10.769-109.028.468-7.485 2.334-11.465.464-15.908-5.85-8.892-12.403-16.143-26.673-28.078-36.266-29.241-23.396-60.125-44.68-96.16-56.86-27.375-9.35-55.221-15.439-84.23-16.372-14.976-.474-30.181.474-45.157 1.637-38.603 3.045-76.977 7.253-111.137 28.537-6.783 4.223-14.507 6.55-21.524 10.528-35.093 18.957-69.722 37.671-98.97 66.217-30.185 29.718-60.362 59.428-87.507 91.954-31.346 37.432-54.979 79.785-76.273 123.535-1.4 3.043-2.1 6.787-6.782 9.361-3.975-24.799-7.954-48.667-11.695-72.534-.708-4.445 2.1-4.21 5.143-3.745 8.656.937 17.085 1.411 25.737 2.577 6.547.934 10.062-.47 11.699-7.723 2.104-10.06 4.448-20.119 6.548-30.41 7.958-38.61 19.418-76.046 29.482-113.947 1.87-7.256.704-9.824-6.783-11.7-37.206-8.89-74.398-18.714-111.602-27.605-7.021-1.637-10.297-4.222-8.193-11.705 8.429-29.01 12.169-59.43 23.628-87.737 1.172-3.045 2.344-6.09 5.386-8.416 9.59-7.497 16.611-16.143 15.673-29.485-.702-10.054 3.98-16.387 13.575-20.825 17.783-8.416 34.86-18.254 51.71-28.078 13.334-7.727 24.325-18.484 31.815-32.516 31.354-58.97 57.555-120.97 95.454-176.408 3.282-4.926 5.852-10.298 9.836-14.506 24.564-25.75 47.49-53.11 75.103-76.046 8.656-7.253 10.991-17.077 11.23-27.848 0-12.395-7.256-21.055-14.742-29.715-7.255-8.416-14.74-15.67-27.138-14.262-2.812.23-5.62-.933-8.663-1.407 1.875-3.749 4.917-4.682 7.49-6.32a23072.314 23072.314 0 0098.97-64.112c40.01-25.736 79.782-51.703 120.031-77.44 5.142-3.274 7.486-5.845 1.864-10.77-1.406-1.164-2.338-2.802-3.505-4.209-8.192-9.58-8.192-9.58-19.42-2.8-111.836 69.483-223.676 139.21-335.513 208.708-9.83 6.075-9.83 6.075-14.737-4.926-11-25.507-17.319-52.407-25.507-78.833-1.87-6.09-.235-9.608 4.447-13.343 28.076-22.462 53.81-47.739 79.787-72.298 10.527-10.053 16.377-21.988 18.242-36.034 2.11-16.617-8.891-25.277-23.858-19.188-7.49 3.045-14.741 6.32-21.527 10.298-66.218 36.494-136.876 61.527-209.407 82.596-4.208 1.163-7.948 2.57-11.465-1.882-7.251-8.89-18.017-13.802-27.143-20.35-1.865-1.408-3.74-1.882-6.073-1.408-9.835 2.57-19.893 5.386-25.977 14.276-15.44 22.692-34.86 42.813-49.365 66.438-16.612 27.389-32.521 54.763-51.237 80.73-3.51 4.911-4.916 5.615-8.192-.23-20.592-36.28-41.412-72.529-62.003-108.807-6.548-11.461-13.569-22.448-21.758-32.975-9.126-11.476-20.351-17.091-34.863-15.454-2.573.23-5.85-.46-6.783 3.519-2.104 10.757-7.022 21.988-5.615 32.286 3.276 26.44 7.959 52.866 14.502 78.617 11.23 44.68 23.868 88.901 37.207 132.892 12.866 43.273 27.368 85.856 41.41 128.913 1.168 3.749 3.277 7.009-1.874 10.054-6.552 3.748-17.075 5.615-18.251 12.164-1.168 6.793 4.916 14.75 7.724 22.003.234.474.468 1.163.703 1.637 2.34 5.615 3.507 14.032 7.715 16.143 5.625 2.8 10.767-4.912 15.918-7.957 4.677-2.815 6.314-2.097 8.419 2.8 12.167 28.553 24.565 56.86 36.967 85.412 1.876 4.452 2.34 8.89.698 13.328-8.652 22.706-14.268 46.332-18.71 70.201-1.173 6.779-3.741 6.779-8.893 5.372a10530.478 10530.478 0 00-81.192-20.581c-11.933-3.045-11.933-3.045-13.335 9.12v.933a54011.223 54011.223 0 01-17.782 194.429c-.464 5.85.234 8.193 6.558 8.892 18.95 2.343 37.666 5.385 56.386 8.193 3.506.468 6.548.698 5.615 5.85-4.214 21.992-7.49 44.218-12.168 65.975-1.406 6.554-.473 10.997 3.277 15.91 6.547 8.427 12.866 17.086 19.418 25.737 4.45 6.084 7.716 14.038 3.74 20.357-2.572 3.974-3.276 7.484-3.276 11.46.704 40.483.704 80.957 2.579 121.435.932 19.654.698 39.303 1.166 58.96.938 52.168 3.98 104.111 5.85 156.29.933 25.508-3.51 50.767-2.343 76.275.235 6.32 1.64 9.824 8.194 11.934 15.438 4.911 30.415 11.225 46.094 16.142 8.422 2.573 14.273 7.252 18.012 15.21 3.276 7.017 4.209 14.033 3.745 21.29-.234 7.016 2.34 11.234 7.949 15.21 24.102 17.31 47.97 35.091 72.066 52.876 63.404 46.791 126.816 93.818 190.45 140.38 5.85 4.45 7.256 7.95 3.75 14.273-3.276 6.085-5.386 13.1-8.658 19.185-2.813 5.615-2.344 9.127 3.038 13.1 7.954 5.616 15.679 11.934 22.93 18.252 6.317 5.381 6.548 13.809 4.682 20.357-1.406 4.677-8.423.47-12.875 0-3.034-.239-6.075-.938-9.117-1.407-30.185-4.916-60.131-12.635-90.787-15.209-48.89-3.974-97.793-8.185-147.163-6.782-2.574 0-6.549-2.343-7.256 2.808-.699 4.208-1.637 8.656 3.042 11.465a44.096 44.096 0 007.49 3.51c27.608 9.59 53.345 23.393 78.613 37.9 16.383 9.361 32.525 19.893 50.533 26.2 3.276 1.179 6.558 3.75 10.532.236a19487.034 19487.034 0 01-81.186-64.805c3.744-2.808 6.786-1.64 9.594-1.406 32.52 2.573 64.81 7.016 96.392 14.507a3694.564 3694.564 0 01206.833 55.918c22.46 6.788 46.327 10.058 66.444 23.627 4.918 3.282 7.726 6.558 7.252 12.643 1.172 1.402 2.572 3.266.938 4.442-1.87 1.168-3.506-1.176-4.914-2.344-15.907-1.4-31.82-2.572-47.495-4.208-45.155-4.45-90.078-10.767-135.704-9.355-34.16.932-68.32-1.412-102.245.932-48.2 3.277-96.392 9.59-144.362 14.741-2.333.234-6.083-.234-6.083 2.574 0 3.511 1.411 7.485 5.85 8.419 3.51.706 7.26 1.175 11 1.175 24.331.933 48.43.699 72.769 1.169 60.362 1.406 120.962-1.17 181.324 3.978 21.757 1.87 43.75.932 65.038 4.912 240.346 46.119 436.25 104.843 503.967 35.791 18.019-18.949 38.146-35.556 58.503-51.933 2.333-1.875 4.208-4.683 7.953-3.277 17.55 7.017 34.858 13.805 54.513 21.524-36.5 22.227-71.124 43.52-105.518 64.345 15.464 14.723 46.32 3.684 63.402-9.126 75.812-45.157 158.395-75.81 241.223-104.35 101.32-34.864 204.726-62.706 308.377-89.38-2.341-.464-4.926-1.168-7.253-1.64-6.793.706-13.342 1.41-20.121 1.874-28.552 2.574-57.09 5.615-84.937 13.1-.532.28-1.077.518-1.637.708-2.571 1.167-5.616 1.401-9.12 1.401-1.408 0-2.815 0-4.682.236 6.319-6.084 24.559-25.738 29.485-24.337l.23-.47h.46c0-.696 1.88-2.102 1.88-2.102 1.638-2.805 3.979-4.679 7.253-4.913 5.372-7.49 11.691-13.565 19.188-18.247 4.912-3.042 10.054-6.084 15.67-8.428h-.23c15.654 0 31.079-18.897 47.423-25.47-.158-.59-.92-1.039-1.336-1.664-23.396 3.276-46.318 7.016-68.78 15.435-47.969 17.783-97.575 31.59-144.367 52.177-72.294 31.584-144.355 63.174-213.847 100.846-2.11 1.166-4.21 2.104-7.485 3.506-1.874-16.841-3.506-32.994-5.38-49.131-.47-3.276 1.166-4.678 3.974-6.084 61.534-32.52 123.3-64.81 187.646-91.48 52.873-21.993 105.28-45.86 158.39-67.388.244-.464.474-.932.948-.932h.46c.244 0 .244.234.474.234.703 1.166.23 1.87-.474 2.568-.23.238-.46.238-.934.474h-.23c-14.031 20.118-26.914 41.176-36.264 64.336 3.734.938 5.142-.234 6.535-1.636 11.001-11.7 22.003-23.163 32.76-34.86 20.84-22.933 42.827-44.691 68.564-62.474 1.637-1.168 4.452-2.1 3.275-4.674-1.408-2.812-4.453-1.41-6.55-.938-24.099 4.912-48.198 9.362-72.068 14.977-7.957 1.87-7.483-.938-7.712-6.558-.245-19.184 2.57-37.9 3.274-57.084a61.58 61.58 0 015.601-24.102 8190.57 8190.57 0 0129.026-65.743c4.912-11 7.712-22.69 9.594-34.395 3.03-18.715 5.371-37.666 7.252-56.617 3.03-29.018 13.328-56.39 18.24-85.166 6.32-36.504 11.475-73.236 25.033-108.096 12.165-30.884 23.87-61.768 36.279-92.418 17.062-41.644 38.834-81.187 49.132-125.639 3.504-15.444 7.483-29.482.46-44.691-3.979-8.185-5.142-17.545-7.943-26.438a38.044 38.044 0 01-1.177-19.887c4.667-23.862 6.779-47.495-6.09-69.722-3.504-6.083.704-9.825 4.223-13.575 8.646-8.891 9.12-12.865 1.623-22.459-8.646-10.759-17.077-21.76-26.427-31.815-7.726-8.186-14.979-17.076-22.706-25.507-5.386-3.274-4.912-5.385 1.178-7.482zM1389.556 656.3c-2.335-6.549-5.143-10.068-12.392-8.43-8.668 2.11-13.34-1.638-17.086-9.364-6.085-12.395-10.99-27.36-21.054-35.087-10.064-7.727-25.972-7.956-39.312-11.23-10.059-2.572-20.118-5.616-30.41-7.254-22.232-3.748-41.416-13.328-59.668-26.67-29.478-21.758-59.894-41.88-91.01-61.067-10.06-.704-19.66-3.519-29.483-5.845-27.144-5.616-54.044-11.476-81.189-16.617-6.547-1.164-7.718-6.09-8.183-10.528-.708-5.385.698-10.771 6.308-14.046 8.659-5.141 18.492-6.075 28.317-7.712 43.286-6.779 87.037-11.935 131.02-12.639 10.766-.23 20.362 3.749 30.42 6.32 6.079 1.637 10.758.933 16.144-2.815 21.054-14.032 42.347-27.374 63.408-41.176 3.266-2.097 9.35-3.504 6.781-9.12a8.476 8.476 0 00-1.406-2.111c-1.167-.934-2.567-1.164-4.209-1.164-1.64 0-3.276.23-4.916.23h-.698c-23.868-.704-45.161 6.793-65.046 19.418-7.72 4.911-25.268 1.867-30.186-5.372-33.218-50.31-80.243-86.574-124.936-125.653-19.883-17.306-39.306-35.33-60.362-51.23-5.38-3.977-7.723-14.03-4.213-19.187 4.682-7.023 10.766-3.978 16.382-1.407 18.013 7.956 35.326 17.076 51.469 28.551 54.986 39.295 113.947 72.529 172.673 105.748 1.64.933 3.276 1.867 4.907 2.57 8.892 3.045 13.574-.933 12.168-10.297-.698-4.897-2.808-9.12-6.084-13.098-47.495-55.911-97.565-109.496-146.695-164.014-10.293-11.231-22.46-21.055-33.926-31.108-9.127-7.727-16.378-16.617-21.528-27.144-3.272-6.55-2.573-12.869 2.342-18.484 3.975-4.453 7.487-5.386 13.335-2.341 16.617 7.956 32.29 17.306 47.027 28.551 25.974 19.648 52.174 39.295 78.385 58.956 26.2 19.648 52.407 39.065 78.609 58.727 2.11 1.637 4.208 3.274 6.084 4.911 4.917 4.438 9.125 9.12 13.809 13.802l2.802 2.815c1.874 1.867 3.505 4.438 5.85 5.831 5.38 3.29 10.995 6.09 16.616.474 1.864-1.867 2.808-3.504 3.042-5.371 0-.704.23-1.408 0-2.111 0-.23 0-.704-.234-.934a16.671 16.671 0 00-4.214-7.023l-17.555-18.24c-9.823-10.068-19.648-19.891-30.41-29.01-33.926-28.323-68.784-55.697-103.883-82.367-17.777-13.558-38.602-22.692-58.025-33.923-7.019-3.978-11.695-9.824-16.847-15.44-3.507-4.207-4.44-9.363-2.34-14.749 2.11-5.142 7.258-4.912 11.7-5.386 7.017-.69 13.335 1.882 19.419 4.926 45.157 22.218 89.61 46.088 132.662 71.825 3.505 2.111 7.017 4.222 10.533 6.549 24.092 15.439 47.025 32.99 69.721 50.784 10.758 8.416 18.715 21.04 27.607 32.041 3.741 4.682 1.168 8.89-2.344 12.18-2.338 2.326-5.614 3.734-8.422 5.37-3.042 2.098-7.017 3.98-5.845 8.417.932 3.978 5.376 4.926 8.887 5.616 5.152.947 10.767.718 15.45-1.394 16.372-6.793 30.175 4.668 40.708 16.143 2.808 3.03 3.974 9.12 9.125 7.253 5.377-2.111 6.085-7.956 5.61-13.342-1.167-14.736-4.91-29.011-8.187-43.287-8.657-36.724-26.206-69.958-40.709-104.584-5.152-12.395-10.767-24.79-15.913-37.198-2.802-6.779.938-12.868 4.683-17.78 3.042-3.978 7.948-.474 11.934 1.407 14.74 6.55 23.158 18.484 30.414 32.286 7.721 14.736 17.31 28.308 25.503 42.583 14.034 24.804 31.35 48.2 42.582 74.166 16.372 37.901 37.197 73.935 47.035 114.637 8.416 36.049 20.351 71.365 24.56 108.577 1.636 14.032-.934 27.604.703 41.176 3.274 27.13-.704 52.88-11.935 77.67-3.045 6.793-2.111 13.342 1.163 20.35 24.574 51.948 44.925 105.533 65.29 159.347 2.57 7.009 1.393 9.824-5.845 11.935-47.036 13.802-94.057 28.077-141.097 42.339-6.782 2.111-8.891.23-10.991-5.845a4687.245 4687.245 0 01-34.399-94.287zm-295.27 296.673c19.19-6.559 38.369-9.127 58.497-3.043.464.234.932.234 1.402.47 25.271 7.713 51.005 13.797 75.107 25.262 3.974 1.876 8.184 3.746 10.996 7.486 15.675 11.234 29.946 24.1 41.88 39.541 18.486 23.867 36.969 47.97 54.276 75.337-1.078-.357-2.157-.834-3.241-1.255l-.123-.148a99.011 99.011 0 01-17.92-10.056 628.807 628.807 0 00-65.753-34.625c-10.526-4.682-21.049-7.724-32.284-9.834-29.482-5.61-58.96-6.548-88.677-3.975-8.183.71-16.607 0-24.8 0-6.084 0-8.892-2.808-8.892-8.892 0-22.925 1.167-46.093-5.85-68.32-1.4-4.672 1.407-6.548 5.382-7.948zm-5.962 168.75c.23-.709.464-1.407.7-1.875.232-.468.232-.933.473-1.403.234-.473.234-.938.468-1.639.229-.47.229-.933.464-1.402.234-.473.234-1.171.468-1.641 0-.464.234-.932.234-1.402 0-.472.236-1.17.236-1.64 0-.462.228-.932.228-1.4 0-.464.236-1.174.236-1.642 0-.464.233-.932.233-1.402 0-.462.235-1.17.235-1.638 0-.464.238-.934.238-1.402 0-.465.226-1.172.226-1.642 0-.463 0-.932.238-1.401 0-.464 0-1.172.236-1.636v-25.971c-.236-7.954 2.568-10.997 10.527-10.767 7.905.195 15.81-.074 23.715-.434 2.394.145 4.825.269 7.287.38 3.973-.274 7.954-.429 11.932-.473a217.861 217.861 0 0137.203 2.344c21.29 1.64 40.942 5.615 53.575 15.913 9.124 3.974 18.251 8.887 27.143 14.033 21.524 12.871 43.053 26.212 64.576 39.312 4.443 2.807 8.417 6.083 11.463 10.527 7.023 10.059 14.503 20.357 21.764 30.648 1.167 1.642 3.032 3.512 1.402 5.617a3.648 3.648 0 01-1.87 1.4c0 .015 0 .015.013.025-1.783.356-3.35-.293-4.927-1.192-9.59-5.384-19.424-10.527-29.01-15.907-33.457-18.721-68.783-32.06-105.751-42.12a975.562 975.562 0 00-9.689-2.612c-10.452-3.075-20.228-6.015-31.493-7.447l-14.736-3.276c-.474.234.46 1.168 1.635 2.344.46.406.85.877 1.168 1.402 1.172 1.406 2.338 2.34 3.98 3.271.232 0 1.386.62 1.87.942 22.226 11.226 59.657 18.252 87.036 30.88l-.47-.235-1.4-.698-9.127-4.216c-.937-.462-1.641-.696-2.573-1.17-.249-.098-.469-.2-.708-.297.24.097.46.2.708.297.932.474 1.636.708 2.573 1.17l9.127 4.216c.336.165.717.342 1.148.512l.253.186c2.108.932 4.21 2.11 6.083 3.042 15.205 7.959 29.01 17.783 42.818 28.316l26.202 20.117c39.306 28.545 63.408 67.152 75.107 113.945.235 1.402.703 2.808.933 4.21l.937 1.405c1.87 2.804 2.34 6.32 1.64 9.361.23.698.23 1.402.464 2.099-.464 6.793-5.848 3.975-8.891 3.975-20.357-.698-40.004-5.14-59.424-10.757l-.62-.122c-5.01-1.464-11.493-3.734-16.114-5.2-20.585-7.25-40.01-15.908-59.892-23.16-24.57-8.655-43.755-25.506-64.576-40.249-34.394-24.336-67.622-49.833-97.564-79.545-3.04-3.042-6.084-6.318-7.724-10.3a401.388 401.388 0 01-6.083-14.969l-3.506-9.131c-.704-1.864-1.412-3.74-2.344-5.844 0-.24 0-.24-.236-.464-.232-.235-.232-.708-.232-.943v-.233c0-.231-.231-.7-.231-.935-.937-3.276-1.171-6.78 0-10.056zm147.285 14.297l-2.109-.792c-.087-.044-.15-.059-.234-.087.084.028.147.043.234.087zm-3.04-1.164l-.236-.087c-1.639-.474-3.04-1.175-4.682-1.639-.62-.162-1.245-.402-1.874-.63.629.228 1.253.468 1.874.63 1.641.464 3.043 1.165 4.682 1.639zm-46.564-15.297l-1.406-.474zm-11.943-3.798c-.382-1.837-.14-2.53.376-2.68.971.399 1.884.696 2.729.8l.18.063c-1.147.684-2.791.395-3.206 1.831l-.08-.014zm-103.174 51.06c.674-2.228 1.978-3.384 3.315-3.087.059.098.128.167.201.279.702.23 1.402.933 2.108 2.34 7.48 14.969 17.775 27.366 29.244 38.837 12.163 11.698 25.269 22.466 37.9 33.926a3173.43 3173.43 0 0079.785 69.483c17.31 14.741 38.136 22.237 60.362 28.077 50.543 12.874 102.246 17.781 153.489 24.808 13.572 1.865 25.736 6.308 36.493 15.2h-.703c.948.71 1.637 1.172 2.34 1.875-28.78-4.21-57.55-3.74-86.335-4.442-31.582-.7-62.466 3.04-93.584 6.552-11.226 1.166-21.991 0-32.76-2.58-29.946-6.78-58.25-18.948-86.563-30.883-32.054-13.574-58.724-34.389-83.999-57.323-1.87-1.87-3.74-3.508-5.61-5.377-8.604-8.524-15.127-17.661-19.746-27.344l-.195-.443c-.09-.186-.155-.382-.249-.567-8.775-20.645-8.295-43.672-1.567-68.98 1.865-6.782 3.973-13.57 6.074-20.352zm253.859 410.142h-6.084c-3.74 0-7.486.942-11.227 1.176-4.208 0-6.782 1.868-8.422 5.612-1.637 3.74-3.745 7.021-5.621 10.767-.23.464-.464.932-.698 1.63-7.486 18.019-18.019 33.462-30.884 46.801-2.808 3.044-5.848 5.846-8.892 8.654a330.722 330.722 0 01-24.336 19.887c-13.798 9.829-29.71 15.914-45.62 21.762l-3.507 1.402a43.718 43.718 0 00-3.276 1.406c-.706.23-1.17.464-1.874.7-.933.232-2.104.702-3.042.932-3.506 1.41-6.313 3.511-4.448 8.895 1.875 5.846 6.083 7.482 11.47 7.716 1.17 0 2.573 0 3.98-.234a59.513 59.513 0 0014.5-3.268c4.684-1.64 9.36-3.75 14.274-5.848 3.276-1.406 6.552-2.808 10.063-3.985-2.812 11.933-4.443 22.934-8.193 33.228-.703 1.864-1.402 3.505-2.104 5.145a689.977 689.977 0 01-8.658 18.721 193.86 193.86 0 01-6.084 12.16c-11.23 22.464-23.862 43.989-39.541 63.876a163.148 163.148 0 01-10.06 11.699 164.823 164.823 0 01-24.564 21.524 388.587 388.587 0 01-10.059 7.02 462.47 462.47 0 01-20.361 11.935c-5.616 3.042-10.991 5.614-16.607 8.188l-6.318 2.808c-1.641.703-3.517 1.401-5.151 2.105-1.406.464-2.808 1.17-4.21 1.64-3.98 1.632-7.955 3.038-11.933 4.444-1.172.464-2.338.938-3.741 1.172a265.893 265.893 0 01-12.632 3.974 471.874 471.874 0 01-39.774 10.059c-5.152 1.168-10.533 2.108-15.919 3.042-.698 0-1.166.234-1.865.234-5.386.934-10.528 1.642-15.914 2.574-5.614.703-11.23 1.64-17.079 2.344-19.185 2.34-38.135 1.166-56.852-1.64-.702 0-1.4-.235-2.108-.47a501.01 501.01 0 00-2.808-.698 66.217 66.217 0 01-14.039-5.854c-6.084-3.272-11.698-6.783-17.779-9.825a168.26 168.26 0 01-12.635-7.018c-5.382-3.28-10.767-6.557-15.675-10.297-9.595-7.016-18.017-15.21-22.695-27.144a174.753 174.753 0 00-8.893-18.95c-.932-1.87-2.104-3.505-3.04-5.141-7.725-12.637-17.08-24.57-26.906-35.802-3.978-4.677-7.954-9.36-12.167-13.803-2.109-2.338-3.98-4.678-6.084-6.783a685.685 685.685 0 00-25.269-26.909l-6.552-6.546c-8.888-8.659-18.248-16.852-28.077-24.104a87.336 87.336 0 00-7.48-5.38 271.715 271.715 0 00-23.634-15.21 118.618 118.618 0 01-5.848-3.51c-1.875-1.167-3.98-2.573-5.856-3.74-26.664-17.785-48.199-41.178-60.356-72.296a12.772 12.772 0 00-1.005-2.036c-4.21-9.033-10.426-11.85-21.417-12.066-8.656 0-17.085-1.4-24.57-4.676l.006.004-.28-.177c-4.677-1.874-8.886-4.682-12.87-8.194l-2.456-1.558c-2.154-2.542-3.717-5.618-5.728-8.74-13.946-20.732-26.895-41.895-37.598-64.169l.273.806-.517-1.318.244.512a367.375 367.375 0 00-7.095-19.117c-1.215-2.905-2.431-5.683-3.477-8.31-1.088-3.776-1.664-7.143-1.664-10.181 0-1.631 0-3.501.225-4.907.234-.938.473-2.109.708-3.04.234-.47.234-.939.469-1.403.234-.942.697-1.875 1.166-2.807 2.573-4.918 6.783-9.362 12.398-13.81 2.11-1.635 4.219-3.275 6.552-4.917 4.448-3.266 9.126-6.074 13.575-9.117a374.216 374.216 0 0121.285-11.933c26.439-13.574 54.515-23.17 83.535-30.655 1.636-.462 3.266-.698 5.14-1.172 3.278-.696 6.793-.932 10.295-1.401 3.427-.269 6.86-.42 10.297-.464 3.512 0 7.016-.233 10.292-.233 1.642 0 3.512 0 5.152-.235 11.7-.469 23.394-1.167 35.093-1.875a1992.012 1992.012 0 0052.643-4.21c17.549-1.64 35.092-3.51 52.64-5.38 31.827-3.745 62.473-11.235 91.72-23.393 6.083-2.578 12.168-5.386 18.017-8.194 3.511-1.874 7.251-3.506 10.762-5.38 2.105-1.168 3.974-2.111 6.084-3.277 14.038-7.484 28.076-14.742 41.641-22.695 1.406-1.87 3.042-2.574 5.386-3.272.239 0 .698-.234.938-.234v1.168c-.24 1.4-.938 2.338-1.876 3.276-.702.468-1.401.932-2.105 1.406-13.568 17.309-32.285 29.242-48.427 43.75-1.64 1.401-3.276 2.803-4.917 4.443-5.143 4.21-10.293 8.657-16.142 13.335 20.352 0 40.01-2.334 58.256-7.72 26.436-7.715 50.539-21.524 71.128-42.583a179.167 179.167 0 0013.57-15.907c10.06-13.335 19.185-29.01 27.145-47.029 6.312 22.692 22.689 38.604 36.498 55.919.932 1.167 1.87 2.573 2.808 3.741.932 1.176 1.87 2.578 2.802 3.744a23.319 23.319 0 005.85 5.85c1.405 1.172 3.041 2.34 4.447 3.277 1.636 1.17 3.044 2.104 4.444 3.27.7.47 1.407 1.178 2.11 1.642a982.488 982.488 0 0031.112 23.628c7.022 5.15 14.04 10.064 21.295 14.976 10.763 7.49 21.524 14.74 32.051 22.226 14.507 10.064 29.717 18.491 45.626 25.973 3.98 1.868 7.953 3.51 11.933 5.385a413.887 413.887 0 0036.968 13.57l2.105.698c7.72 2.108 16.147 2.807 24.33 3.75 3.043.224 6.085.697 8.892.932 1.64.234 3.746 1.167 5.85 2.333 2.11 1.177 4.444 3.044 6.553 4.918 7.255 6.553 14.038 15.907 14.506 21.523 0 .938 0 1.636-.234 2.344-.234.464-.234.7-.473.932-.933 1.641-2.333 3.043-3.267 4.683-2.808 4.912-5.86 9.825-8.193 14.976-.474.933-.698 1.637-1.172 2.569-3.042 7.724-4.21 15.907.24 25.507 11.225-11.234 21.283-23.163 28.54-36.734 2.104-3.75 3.744-7.49 5.384-11.47 1.168-2.572 2.1-5.38 3.043-8.187.932-2.568.224-5.611.932-8.184.932-2.807-2.338-6.793-.932-8.663 0-.23.224-.23.458-.464a3.82 3.82 0 011.406-.706c.938-.226 1.876-.46 2.58-.46 1.864-.24 3.504-.474 5.38-.474 4.678 0 9.125.708 13.57 2.104 2.807.938 1.865 4.445 1.64 7.022v.464c-.475 8.427-3.983 16.153-7.027 23.634a53.769 53.769 0 01-2.333 5.384c-5.146 12.633-10.532 25.5-18.717 36.495-11.464 15.214-24.799 29.483-46.332 30.18zm25.507 43.994c-3.041 16.368-5.615 32.52-8.422 48.892-.704 4.684-1.174 9.594-4.678 16.143l-.71-4.21c-.234.705-.696 1.403-1.166 2.345-3.974-24.103-6.552-46.328-7.251-68.794-.238-5.142 3.277-6.31 6.553-7.481 5.376-1.87 12.163-7.953 15.674-5.15.47.472.932.936 1.167 1.405.234.235.47.235.708.469 4.208 3.276-.708 10.757-1.875 16.38zm-346.041 347.208a171.012 171.012 0 01-26.676 2.106c-9.125 0-18.012-.938-27.139-3.042-4.91-1.173-6.78-4.444-6.322-8.428.238-2.569 2.108-2.569 3.984-2.569 1.168-.238 2.574 0 3.741.236h17.55c2.576.234 5.145.234 7.953.234 7.783.028 15.545-.753 23.163-2.344 1.402-.23 2.808-.464 3.981-.23 3.036-.234 5.379.464 5.614 5.147 0 4.208.932 7.954-5.85 8.89zm-436.124-209.873h.004c4.672-19.189 2.807-39.072 5.38-58.49.468-3.976 2.573-3.512 4.917-1.407 3.73 3.505 7.237 7.24 10.971 10.746l1.422 1.422c1.874 1.64 2.109 3.74 1.17 5.85a7510.26 7510.26 0 01-21.756 43.75c-.698-.235-1.64-.47-2.338-.699 0-.468.234-.704.234-1.172zm753.146-324.282c-8.183-.934-16.371-2.575-24.799-2.34-16.608.474-29.943-8.183-43.985-15.673h1.64c-1.172-.704-2.34-1.172-3.515-1.872 2.343.236 4.917.236 7.26.469 2.809.23 5.38.933 8.189 1.403 23.16 4.91 45.62-1.872 68.555-4.215 23.624-2.573 43.985 5.855 63.868 17.32-.47 0-.7 0-1.168.234.933.464 1.875 1.166 3.042 1.63-26.44 3.981-52.64 5.85-79.087 3.044zm-876.214-299.016c7.724-14.735 16.383-28.775 25.508-42.343 4.678-6.783 9.35-13.575 14.267-20.123 2.344-3.276 4.918-6.553 7.49-9.83a697.387 697.387 0 0123.16-28.774c7.96-9.36 15.908-18.715 24.103-28.076 8.183-9.36 16.375-18.482 24.33-27.842 3.276-3.511 7.25-6.558 11.23-9.6l2.505-2.885c7.68-6.616 14.356-13.447 23.233-20.509l1.17-.932c2.106-1.876 4.215-3.974 6.55-6.084 23.398-22.226 50.543-39.538 77.675-56.844 2.745-1.81 5.538-3.433 8.375-4.97a324.943 324.943 0 0110.811-4.639c.943-.46 1.875-.933 2.807-1.163a242.998 242.998 0 0116.85-6.32c3.745-1.163 7.72-2.34 11.46-3.518 13.575-3.978 27.144-7.238 40.484-11.46 24.8-7.943 50.538-11.462 76.27-11.232 3.74 0 7.255.244 11.002.244 19.183.934 37.9 8.416 55.449 16.143 7.72 3.505 15.443 6.78 23.158 10.528l5.616 2.8c5.62 2.815 11.47 5.616 16.845 8.905 3.75 2.097 7.257 4.208 10.997 6.305 3.51 2.34 7.26 4.452 10.527 7.023a188.102 188.102 0 0120.127 16.147c21.29 19.648 36.264 42.812 45.152 70.187 6.323 19.657 11 39.774 12.642 60.125 1.63 19.66-4.22 38.845-9.362 57.794-.707 2.808-1.874 3.51-2.806 3.277-1.408-.47-2.109-2.11-3.276-3.511-7.022-8.185-14.044-16.143-21.06-24.33-27.373-31.823-60.133-54.987-101.544-66.68-32.05-8.894-64.34-14.04-96.86-14.977-25.969-.698-52.413 3.975-78.384 8.893-20.587 3.974-41.177 7.25-61.53 10.994-13.34 2.34-25.507 8.424-37.674 13.804-5.807 2.584-11.622 5.154-17.618 7.364l-1.811.42c-36.73 12.866-67.838 35.034-99.894 55.62-8.775 5.771-16.05 13.551-23.662 21.176l-.904.817-6.318 6.32c-14.74 14.27-29.248 28.782-45.157 41.883-7.25 10.058-17.075 17.075-26.2 25.967 2.334-16.611 6.781-32.052 14.267-46.094zm-6.507 93.814c1.17-1.874 2.342-3.511 3.978-5.153 32.525-32.049 63.632-65.976 99.67-94.052 59.892-46.792 125.174-83.296 200.277-99.44 18.253-3.978 36.734-6.78 55.685-6.78 21.528-.24 43.051-.938 64.346-1.642 41.176-1.402 79.075 10.295 113.71 31.588a198.009 198.009 0 0135.357 27.7l1.333 1.323a209.92 209.92 0 0131.352 40.01c7.716 12.632 5.616 26.441 3.038 40.25-7.017 39.535-30.884 68.784-57.789 96.151-25.738 26.212-58.028 43.287-87.974 63.18-42.35 28.306-90.776 39.307-140.152 46.557-61.528 9.126-123.994 10.06-185.762 18.247-22.465 2.814-45.161 4.678-67.622 8.663-26.676 4.908-49.6 18.007-66.216 40-6.085 8.193-9.825 18.251-15.675 29.482a19.411 19.411 0 01-.932-3.506c-3.277-13.335-1.176-24.336 3.506-34.868 10.766-23.856 28.784-40.709 51.944-52.642 40.478-21.283 85.635-25.493 128.912-36.494 35.102-8.89 71.128-14.039 105.996-23.631 47.96-13.335 94.75-30.416 138.974-53.58 23.394-12.164 47.73-24.567 63.874-47.266 11.697-16.607 14.74-34.624 11.697-54.278-.468-3.276-1.4-4.908-2.572-5.146-1.167-.236-2.808.702-4.912 2.572-17.548 15.673-35.801 30.65-55.684 43.75-31.118 20.128-65.518 32.296-101.078 40.953-56.617 14.035-113.707 25.968-171.97 30.176-41.177 2.808-81.656 10.298-120.728 23.633-33.218 11.465-66.914 22.924-93.584 47.735-3.277 3.042-7.256 5.61-12.637 9.583.235-1.4.47-2.566.708-3.74-.942.7-1.64 1.174-2.582 1.87l.097-.472c.792-.62 1.455-1.23 2.29-1.646 1.631-7.72 4.673-13.803 8.183-19.419 20.826-33.218 41.885-66.444 62.941-99.668zm233.461 61.549l51.007-8.424 8.885-1.64c-10.523 5.614-21.992 8.188-33.456 10.532-54.512 13.563-110.197 21.524-165.416 31.816-39.777 7.485-75.341 23.159-107.627 47.495-1.866 1.408-3.975 3.043-6.08 4.214-2.577 1.636-3.744 1.168-4.213-.932-.23-.474-.23-1.176-.23-1.874-.942-14.044 3.272-20.827 16.143-26.676 17.549-7.954 35.092-16.376 52.64-24.565 22.927-10.528 47.496-13.805 72.296-16.379 38.61-4.208 77.208-9.124 116.051-13.567zm-1.929-1.872l.055-.004h.004-.004zM470.294 375.537c.933 2.571 1.167 4.668-1.64 6.305-8.422 5.156-16.611 10.298-25.033 15.454-.704.474-1.642.69-4.45 1.867-.698-1.178-1.636-3.275-3.042-4.912l-52.636-60.363c-2.344-2.801-4.682-5.386 0-7.957 17.31-9.824 30.41-25.737 48.662-34.153 4.682-2.111 6.318-2.355 8.656 2.8 11.701 26.212 19.66 54.045 29.483 80.96zm-142.72-123.082c24.8-8.89 49.125-18.943 73.697-28.767 35.566-14.046 67.852-34.167 101.309-51.947 3.511-1.867 6.781-4.208 10.293-6.076 3.042-1.407 5.615-5.615 9.6-3.518 4.673 2.585 3.031 7.497 3.031 13.112 1.178 5.846-2.572 10.757-7.948 15.67-33.692 31.351-68.784 61.066-104.82 89.848-14.268 11.46-31.817 16.847-47.734 25.507-3.266 1.623-5.142 0-7.016-2.341-11.7-14.98-23.16-30.19-34.86-45.154-4.443-5.386 1.64-5.156 4.448-6.334zM115.362 572.541C88.686 489.945 60.61 407.823 38.384 323.834c-5.151-19.432-7.251-39.783-11.002-59.674-1.166-5.845 2.818-8.89 6.558-10.987 5.151-2.585 5.377 3.504 7.252 5.845 36.733 50.77 61.767 108.089 91.719 162.607 8.89 16.373 18.95 32.286 28.545 48.429 1.864 3.044 3.27 5.615 7.948 3.978 5.153-1.867 4.215-5.142 3.282-8.89-3.75-16.847-12.406-32.056-18.715-47.97-2.344-5.615-2.344-10.053.224-15.668 13.34-27.604 32.06-51.703 46.801-78.144 13.565-24.1 30.884-45.628 43.985-69.957 6.782-12.409 22.227-14.506 32.52-4.682 7.022 6.549 12.632 14.046 17.549 22.232 16.84 27.374 40.24 49.362 62.936 71.825 15.907 15.913 32.049 31.352 48.9 45.858 5.615 4.911 6.549 12.394 9.59 18.713 1.177 2.341.235 4.208-1.865 5.386-1.176.704-2.344 1.178-3.042 1.867-13.81 11.705-26.909 10.068-43.053 1.867-32.055-16.143-59.657-37.427-84.232-62.934-.933-.934-1.871-1.623-2.803-2.341-11.231-8.416-11.7-7.942-16.616 4.926-5.143 13.098-8.424 26.67-14.268 39.309-2.11 4.438 1.166 9.12 4.442 12.394 3.741 3.734 6.32 9.594 13.102 8.646 3.04-.46 4.682-2.097 5.38-5.371 1.636-7.727 3.745-15.44 5.854-25.033 25.499 21.528 53.81 38.13 81.887 56.859-9.825 5.601-18.487 10.513-27.144 15.425-69.488 39.079-139.204 78.158-208.464 117.466-5.61 3.045-7.953 3.735-10.292-3.274zm24.33 54.274c-2.573-5.371-1.64-7.727 3.277-10.757a57343.873 57343.873 0 00251.749-156.532c4.448-2.8 8.657-1.177 12.866-2.097 14.74-3.288 29.02-7.726 41.885-15.913.932-.703 2.574-1.177 3.043-2.11 9.36-20.826 30.175-27.849 47.728-36.035 40.005-18.254 80.485-35.086 115.818-61.757 8.183-6.319 16.844-3.992 22.929.69 5.615 4.452 10.058 12.164 7.714 21.299-2.802 10.986-7.016 20.35-15.668 28.307-33.692 31.352-61.07 67.616-85.87 106.451-22.231 35.101-44.224 69.957-60.835 108.103-3.271 7.712-8.657 13.802-14.273 20.121-23.394 26.67-51.235 47.251-83.286 62.23-7.026 3.275-10.07 8.187-10.533 15.44-.469 5.86-2.343 11.475-2.807 17.32-.938 14.98-5.845 27.848-18.487 37.198-3.975 3.045-4.443 7.957-5.85 12.165l-26.668 89.145c0 .703 0 1.407-.236 1.867 0 1.407.236 3.044-1.64 3.748-3.974.934-7.48-.23-10.99-2.111-43.528-10.054-86.568-21.055-129.62-32.516-5.38-1.177-10.534-2.815-16.144-3.504-8.657-1.178-9.365-5.156-5.385-11.705 5.62-27.374 12.168-54.518 29.014-77.684 3.741-5.142 3.515-9.35.234-14.965-18.487-30.879-32.52-64.112-47.964-96.398zM49.15 983.622a53.78 53.78 0 01-3.515-.698c-4.209-1.178-5.61-3.75-4.912-9.6 5.15-46.329 10.063-92.646 14.976-139.208.234-1.178.234-2.111.469-3.045.234-.474.468-.933.468-1.407.698-1.408 2.104-1.867 3.74-1.867.933 0 2.34.23 3.75.703 62.934 16.617 125.636 33.22 188.575 49.822 62.94 16.617 125.874 32.998 188.81 49.615 6.084 1.636 7.958 3.506 5.85 9.825l-27.139 88.913c-.933 3.5-1.637 7.25-5.611 7.25-.473 0-1.176 0-1.874-.235-33.694-4.683-67.384-9.127-101.07-13.809-22.003-3.042-43.761-6.078-65.754-9.12-65.278-9.36-131.02-18.254-196.763-27.14zm51.705 89.842c-1.172-3.514-.937-6.322 0-8.421.444-1.368.992-2.7 1.636-3.986.234.474.234.944.468 1.412.47 3.038-.697 6.313-2.104 10.995zm577.902 873.403v-.224c-2.338.224-2.574 1.631-3.739 2.333-.474.474-1.173.932-1.875 1.406a36.534 36.534 0 01-3.74 2.57c-3.044 2.11-6.085 4.682-7.491 8.426 0 .7 0 .464-.235.938-.235.47 0 1.402-.235 1.402h.71v1.406c-2.344 6.783-3.518 11.695-4.683 15.209-.235.933-.703 1.637-.933 2.335-.234.708-.708 1.168-.942 1.64-.25.43-.566.826-.932 1.168-.704.702-1.404.942-2.344 1.166h-.7c-1.401 0-2.807-.464-4.917-1.166-3.276-1.168-7.484-2.808-13.335-4.683-.464-.225-.932-.225-1.167-.46a2.446 2.446 0 00-1.166-.473c-.943-.47-1.64-.703-2.573-1.167h-.943v-.942h-.235c-7.016-2.333-13.564-3.74-19.883-6.308-3.75-1.406-7.724-2.574-11.698-4.214-4.917-1.173-9.825-3.511-14.74-3.511-13.572-4.684-27.38-7.016-40.48-11.7-1.168 0-1.866.234-4.21 0v.234c-9.36-1.87-16.84-4.21-25.732-5.844-8.662-1.406-11.933-5.85-11.001-14.507.47-3.51.234-7.723.234-11.235 0-1.168-.234-1.636-.234-3.975-1.4-2.344-3.512-5.152-5.382-8.192-.702-.934-.938-1.632-1.4-2.574-1.166-1.168-3.51-2.334-3.51-3.74-2.34-.47-1.406-.938-2.106-1.402-7.261-6.792-5.151-15.909-4.218-24.57 0-.934.239-1.872.239-2.808.234-1.87.468-3.741.703-5.38.235-.934.235-1.876.464-2.574 3.744-14.502 4.682-28.31-10.99-36.967-1.877-1.168-3.044-2.344-5.388-3.982v.47c-7.02-5.616-14.741-11.46-21.985-16.143-1.178-2.338-1.412-2.808-3.748-3.74-11.697-6.319-21.057-13.569-30.184-22.226-2.34-1.406-4.913-2.578-7.257-3.974l.943-.012c-1.407-2.332-3.042-2.098-4.21-3.27-1.873-1.402-3.514-2.344-5.849-3.745-11.708-10.058-27.617-19.42-40.244-30.884-4.449-1.4-7.257-4.918-10.765-7.726v-.458c-12.398-8.657-24.568-17.085-36.735-26.439h.235c-1.402 0-1.402-1.18-3.746-2.344-7.017-3.507-14.038-9.357-20.12-14.034-1.872-2.344-3.742-2.344-5.612-2.344-5.615-4.672-10.532-6.782-15.21-10.996-1.875-1.166-3.506-2.568-5.85-3.98-14.038-8.657-27.139-16.84-38.608-28.07l-1.166-1.178c-.7-.698-1.404-1.63-2.106-2.334a18.43 18.43 0 01-2.578-4.21c-.464-1.171-.933-2.343-1.168-3.749v1.876c-8.421-9.127-14.033-19.659-21.049-29.244l-.708-1.406c-.234-.47-.468-.934-.468-1.402-.235-.942-.235-1.876-.235-2.572.235-1.876 1.173-3.512 2.344-5.152 0-.468.235-1.167.235-1.874 2.334-14.977 10.526-28.54 16.376-42.58v-3.506s0-2.109-.233-3.04c-.236-.71-.236-.944-.47-1.408l-.474-.468a3.593 3.593 0 00-1.631-.933h-.702c-1.406 0-3.278.698-5.616 2.099a30.39 30.39 0 00-5.386 4.214c-.698.47-1.166.937-1.864 1.403-.47.468-.942 1.176-1.406 1.874-.235.234-.47.702-.704.934 0 .232-.234 0-.234 0 0 .232-.235 0-.235 0v.232c-4.672 5.386-11.698 10.06-17.783 14.977-1.167 1.166-3.272 2.572-3.272 3.745v-.235h-.702c-1.87 2.338-4.45 2.338-7.018 1.173-10.063-4.449-20.122-8.659-30.185-13.34-2.339-1.168-3.507-3.74-3.975-6.084a64.368 64.368 0 01-.703-3.042c-.235-.934-.469-1.637-.703-2.574v.473c-3.51-16.382 2.11-28.55 5.152-42.582.229-1.176.464-2.344.464-3.512 2.344-13.573 3.276-28.076 7.25-41.181v-6.084h.049c-2.134-14.961-2.183-29.712-3.32-44.687 0-2.574.23-5.146.23-7.716-1.402-27.852-3.272-55.694-4.21-83.535-2.104-58.252-6.782-116.28-5.147-174.537.235-9.36-1.635-17.32-4.677-25.034-.708-1.87-1.64-3.744-2.573-5.62-2.807-5.382-6.085-10.522-9.595-15.909-5.146-7.251-7.016-14.267-4.682-23.159 3.51-13.575 6.083-27.606 8.657-41.415 1.176-6.554 3.047-10.06 10.527-7.486 2.817.932 6.085.702 9.126.932 12.407 2.814 25.274 3.042 37.677 6.084 1.166 0 1.63.234 3.27.942 10.997.46 23.628 2.1 35.329 4.678 1.176 0 2.576.23 3.744.933 14.038 1.875 28.076 3.506 42.114 5.85 3.276 0 6.084-.236 9.127 1.64.468 0 1.167-.234 1.167 0 16.376 1.87 29.243 3.042 43.286 5.376h-1.402v.474c9.356 1.166 15.44 2.334 22.697 3.501 7.48 1.176 15.205 3.042 22.455 3.042h.234c.708 0 1.173.24 1.641.24.469.233 2.109.468 2.109.468 4.673.234 6.547 2.808 7.251 6.782 3.74 22.228 6.783 44.453 11.465 66.684 0 1.637.934 3.043.698 4.444.704 3.745 1.172 7.253 1.87 10.767 2.11 10.757 3.98 21.518 6.085 32.284 0 .934 0 3.044.239 3.507v.938c2.334 14.038 4.913 26.675 7.251 40.01v4.448c-4.45 4.673-8.657 10.293-12.633 15.673a156.794 156.794 0 00-16.61 29.244c-3.043 7.251-6.793 14.741-9.834 21.993l-.464.234c-2.344 7.49-6.084 14.74-9.596 21.757-.234 0-.463.474-.698.942-.468.933-.708 2.335-1.166 3.043v.234a332.091 332.091 0 01-13.34 30.65c-1.636 3.276-3.512 6.548-5.386 9.824-.698 1.874-2.334 3.74-2.334 5.375-2.344 8.892-4.448 17.785-8.892 25.977-1.406 7.725-3.511 14.977-7.257 21.993-2.802 14.038-7.484 25.732-12.636 38.373-.698 1.87-1.864 3.502-1.864 5.377 0 .235-.235.469-.235.707-.234.7-.474 1.867-.942 2.805-.229.936-.464 2.103-.934 3.04 0 .24-.233.7-.233.938-1.167 24.101-2.573 48.193-3.74 72.296l2.099.703c3.042-6.085 6.084-11.929 9.125-18.012 3.044-5.85 5.388-11.934 8.658-18.019 1.876-4.214 4.917-8.423 4.917-12.631 7.018-11.704 13.334-23.405 20.587-34.16.708-1.174 2.11-1.876 2.806-4.214 6.084-9.361 13.103-21.763 20.357-32.521 2.525-4.135 5.268-7.822 7.583-11.934h-.096c1.638-4.682 4.214-5.384 6.316-7.49 2.106-2.104 3.282-4.208 7.955-6.317 0 1.874.47 3.515.234 5.15 0 .23-.234.7-.234.933 0 .934-.464 1.876-.698 2.808 0 .234-.234.708-.234.932-.24.708-.24 1.176-.474 1.876-.225.702-.225 1.166-.225 1.874 0 .698-.473 1.168-.239 1.871 0 .464-.205.937-.341 1.406h.341c-2.105 14.032-2.105 29.94-2.343 44.682 0 .704-.46 1.876-.46 2.344l.46-.234c1.875 14.033 4.213 28.076 6.083 42.11h-.234c.234 0 .474 3.043.474 4.219 2.332 14.033 5.376 28.304 7.016 42.582 0 .464.234 1.167.234 1.631.234.938.47 1.636.47 2.58 2.338 11.23 10.755 18.949 15.908 28.772 3.74 5.388 7.724 11.7 11.23 16.379h.234v.238c11.7 10.294 21.529 20.82 34.63 30.176 1.87 0 3.74 2.344 5.615 2.344h-.235v1.166c4.678.474 8.657 4.214 13.57 2.808.933-.234 1.875-.698 2.573-1.166.703-.47 1.641-.932 1.874-1.642 1.168-2.102-.932-3.276-2.572-3.974-19.185-12.169-16.142-32.056-18.486-50.772h.703v-.234c4.682 4.445 7.953 8.887 11.929 13.569.704.942 1.41 1.876 2.344 2.574 1.636 1.87 3.276 3.511 4.911 5.387a104.215 104.215 0 0010.534 9.823c3.74 3.042 7.713 6.318 12.161 8.658 1.87.702 3.746 2.344 5.388 2.344h-.474c14.037 6.781 26.206 13.335 39.071 20.115 2.808.47 5.386 1.403 7.72 3.512 4.682 14.038 10.299 28.076 8.891 44.449.47 0 .934 1.64 1.168 2.807.24 1.177 0 2.109-.234 3.042 1.64 13.575 1.64 27.379-.225 40.952a4.292 4.292 0 01-.239 3.74c-.235.47 0 .704-.235 1.168h.235c0 13.569-.235 27.144-3.747 40.479-.228 13.34-4.442 26.205-5.848 39.54 0 .468-.236.933-.464 1.636-.704 2.573-1.87 5.615 3.74 4.917v-.235c12.641-13.1 25.268-25.975 36.968-40.712v.938c.235-4.678 3.043-7.022 5.615-9.36 4.918-4.684 9.83-12.633 14.741-19.42 4.912-6.782 9.83-13.34 14.736-20.122 0-.47.241-.703.241-1.167.697-2.344 1.634-3.746 2.802-4.444.474-.238.938-.472 1.406-.472h1.402c1.406.234 3.042.706 4.917 1.874 2.573 1.402 5.146 3.042 7.49 4.683 14.032 7.714 29.946 12.866 40.47 26.201 1.17 1.166 2.582 1.402 3.75 3.74 4.907 2.344 9.355 7.724 12.865 12.871 1.166 1.172 2.572 2.34 3.74 3.506.234.234.47.234.702.474 18.484 15.673 19.894 24.092 6.56 44.917-.475.702-1.179 1.402-1.643 1.402a22.936 22.936 0 01-2.342 5.385c-.464 1.172-1.168 2.339-1.866 3.505-.235.474-.71 1.177-.942 1.641-3.507 5.616-7.251 11.461-8.657 18.017-1.166 5.378-2.104 10.997-1.166 16.377 2.572 9.127 4.916 18.481 6.78 27.843 1.168 5.615 2.344 11.225 2.808 17.075 1.875 13.809-4.672 22.232-16.377 28.076zm62.237 113.946c-3.043 3.75-3.507 11.465-8.423 10.766h-.468c-.464 0-.932.236-1.402 0-8.893-1.166-18.247-3.276-25.972-8.422-2.808-1.87-2.108-5.386-2.108-8.663v-44.22c0-3.041 1.176-6.547-1.866-8.655-10.293-6.55-7.72-17.783-10.293-27.134-.944-3.75 1.63-5.616 3.74-7.96 9.125-10.057 18.017-20.117 27.142-30.18 6.086-6.552 8.66-13.805 4.21-21.763-8.428-15.909-7.022-31.12-.234-47.26 5.381-12.632 8.891-25.967 13.799-40.944.468.468.942 1.168 1.412 1.636v-.015c9.125 11.46 18.246 21.31 24.33 32.775 14.737 28.31 36.494 48.9 64.57 63.867 13.106 7.026 24.914 16.72 40.352 18.583l.24.045c.688 0 1.127-.132 1.806-.142 1.64-.004 3.927-.21 3.462 2.34-.234 1.4-1.636 1.4-3.042 1.176h-.698c-.47 0-.938 0-1.402-.235-16.294.47-32.231 3.164-48.05 6.538-8.302 1.744-16.563 3.691-24.817 5.63-7.445 1.719-14.892 3.414-22.362 4.907a9.468 9.468 0 00-1.406.42 3.427 3.427 0 00-.235.049c-3.266.698-4.672 2.34-4.208 5.615.468 3.976 1.874 6.084 6.552 7.016 8.36 1.544 17.08 1.794 25.478 1.617l1.196.025a244.817 244.817 0 0034.391-3.276 235.304 235.304 0 0138.369-3.042c12.403 0 24.81.938 37.437 2.812-41.881 6.782-76.505 30.41-114.405 46.324-19.659 8.187-34.87 23.861-53.584 33.925-1.402 1.636-2.11 4.21-3.51 5.845zm121.197 30.883c0 .235-.235.235-.235.474-.235.235-.469.235-.698.235-.235 0-.704-.235-.943-.235a2.9 2.9 0 01-1.167-1.17c-27.373-6.788-54.985-13.571-83.994-20.823 9.594-7.724 16.612-12.167 28.31-7.724 19.186 7.486 36.969 18.019 55.45 26.675.943 0 2.11.235 2.807.933.47.235.47.469.47 1.167zm191.62-34.858c-21.522 17.315-42.817 34.858-62.934 53.809-4.916 4.682-8.657 4.917-14.277 1.406-34.39-20.357-70.19-37.432-106.92-53.11-16.148-6.783-33.227-9.59-49.834-15.44 1.872-3.51 5.377-3.51 8.185-4.448 35.8-13.335 72.295-25.269 107.392-40.942 9.127-4.214 18.253-.704 27.144.464 13.335 1.874 26.202 2.11 38.37-4.445 2.1-1.17 4.443-2.104 7.015-.932 27.145 11.227 54.283 22.462 82.36 33.926a2095.442 2095.442 0 01-36.5 29.712zm167.52-118.859c-11.223 14.513-13.099 30.89-7.483 47.731 6.551 20.117 1.87 33.926-17.78 43.75-4.453 2.343-7.959 3.75-11.704 3.511-2.807.24-5.38-.468-8.658-2.803-36.493-25.273-80.007-33.692-120.96-48.198-5.85-2.11-11.462-4.22-17.544-5.615-7.021-1.636-6.549-6.318-5.615-11.231.702-3.515 2.572-3.979 4.442-3.746 1.874-.468 4.45.938 6.085 1.407 46.791 11.7 94.058 21.05 139.214 38.598 1.635.704 3.036.944 4.213 1.178 3.266-.474 4.21-3.516 3.74-7.96-.932-10.527-1.874-20.824-14.039-26.436-30.184-14.041-62.236-20.122-94.988-22.699a304.57 304.57 0 00-14.507-.932c23.158-14.034 48.665-21.524 69.487-39.541a97.863 97.863 0 007.254-6.554l38.835-47.025c1.64-2.574 3.04-5.149 4.682-7.715.421.17.81.409 1.167.696l.703-.696c3.74 2.098 3.976 4.906 4.916 7.24 9.827 24.102 19.416 48.438 29.244 72.535 2.34 5.386 2.808 10.059-.703 14.505zm500.472-994.133a6.263 6.263 0 011.393 2.344c.273.692.186 1.48-.23 2.098a4.072 4.072 0 01-1.407 1.406c-.474.705-.704.935-.934 1.403l-.23.234c-.244.235-.244.469-.474.933 0 .235-.23.474-.23.474h.23v.699c-14.046 14.271-10.297 27.612.934 40.476.704 1.168 1.407 2.336 1.407 3.512 9.364 12.397 1.638 24.8 0 37.197-.23 1.177-.46 1.635-1.407 2.109-.23 0-.46.235-.704.235-.933 0-1.867-.235-2.8-.468-.23 0-.704-.241-.934-.241-8.186-2.333-16.387-4.906-24.573-7.484-.69 0-1.164-.464-1.868-.698-.703 0-1.177-.704-1.867-.704-3.748 0-7.956-.238-11.475-1.87-10.513-4.443-20.12-3.043-28.537 4.912a5.3 5.3 0 01-.474 1.871c3.978 5.849 10.527 7.255 16.387 9.126 23.855 7.724 44.22 22.465 66.209 33.926 5.141 2.806 6.075 8.89 5.615 14.741-.23 3.276-1.163 6.546-1.867 10.06l-7.023 30.18c0 2.578-.244 5.151-1.867 7.485.23 16.381-11.245 28.55-16.617 42.588-.703 1.172-1.163 1.631-1.867 3.975a313.776 313.776 0 01-12.638 29.013c0 .703-.948 1.636-1.178 2.344v-.474c0 .24-.23.24-.23.474 0 .224-.23.463-.46.933-.243.233-.243.468-.473.697-1.163 4.443-1.867 9.127-5.616 12.87-3.734 14.978-11.001 28.541-18.254 42.116-.704 1.166-1.163 1.166-1.623 3.51-6.09 14.035-12.408 30.884-18.498 46.325-1.407 5.61-2.57 11.235-3.964 16.61l-.718 1.407c0 .235-.23.235-.23.47 0 .462-.46.932-.703 1.4-.23 7.257-.704 12.867-3.505 18.716-1.177 3.75-2.111 7.96-3.274 11.7 0 .468-.23 1.166-.46 1.874-6.563 29.713-13.112 59.428-19.662 88.912-5.385 24.327-7.482 49.125-11.46 73.463-3.749 22.928-4.682 46.558-10.298 69.023-3.978 16.377-13.342 31.577-20.825 46.792-7.023 14.268-11.46 29.477-20.121 43.286l-.704 1.402c-.488.97-.89 1.992-1.177 3.042-.23.464-.23 1.166-.46 1.64-.244 1.167-.46 2.1-.704 3.266-.23 1.179-.23 2.344-.23 3.517 0 1.166 0 2.334-.23 3.51v3.506c0 2.344 0 4.677-.243 7.016-1.868 25.046-5.142 50.078-3.979 75.338.244 4.682-1.163 7.256-5.601 8.89l-5.63 2.112c-3.734 1.406-7.482 3.04-10.987 4.682-1.881.698-3.978 1.635-5.86 2.333-3.044 1.172-4.911 2.109-9.593 3.276v-.468s-.69.468-1.164.468a300.374 300.374 0 01-12.868 5.382c-3.045 1.166-6.09 2.578-9.12 3.746-6.32 4.447-13.342 7.021-20.595 8.891l-3.504 2.104c-14.75 6.553-30.19 13.335-44.227 19.889 0 .238-1.406.696-1.87.696-7.953 2.344-16.141 7.027-24.1 10.767-8.654 3.742-17.077 7.252-25.733 11.002-13.57 6.075-27.144 11.699-40.715 17.773-.462.235-1.166 0-1.64 0-12.391 4.683-25.268 11.47-36.966 16.85-4.675 2.574-11.461 5.152-17.31 7.486-10.758 4.214-13.102 3.74-15.441-7.251-7.026-5.152-7.724-13.81-10.292-21.06-2.578-7.017-4.684-14.74-7.027-21.758-.464-2.338-1.636-1.874-1.636-3.276-2.338-3.276-2.338-6.318-3.505-9.59 0-.469-.235-1.176-.235-1.64-.698-.47-.698-1.167-.938-1.87-.233-.473-.468-1.173-.702-1.641h.47c-3.278-9.824-6.788-19.419-9.128-29.242-2.333-6.558-6.552-12.867-7.72-19.66a16.698 16.698 0 010-6.782c.235-1.166.469-2.109.704-3.276.235-.47.235-1.166.464-1.635 1.875-4.677 4.916-9.122 7.26-13.57 1.632-3.746 3.032-7.486 4.674-11.23 1.636-3.74 3.042-6.548 4.677-11.231 3.75-7.017 6.084-15.21 10.766-23.393 0-1.876 1.402-3.75 1.876-5.625 4.208-14.268 8.891-28.776 14.503-42.58 0-.463-.47-1.17-.236-1.64 1.642-8.419 9.59-11.46 14.273-16.377v.234c2.344-.698 3.512-2.1 4.676-2.1 1.408-2.343 2.808-3.281 4.216-4.681 2.568-3.044 4.911-6.32 7.251-9.591 1.176-1.636 2.344-3.276 3.276-4.916 4.444-6.554 8.423-13.335 13.335-19.889 1.64-2.104 3.042-5.381 5.614-5.381.47 0 .71 0 1.168.235 3.75.932 2.582 5.382 2.11 8.188-2.336 10.762-1.636 21.295 0 31.822 1.172 8.19 2.573 16.371 3.277 24.565 0 1.167-.236 2.573-.236 3.741 2.339 6.084 3.276 12.169 3.516 18.485 1.866 7.955 3.5 15.675 5.844 23.634 7.023 14.506 12.163 29.243 16.847 44.22l.468-.236c7.96 11.7 15.909 25.27 23.868 38.135 2.334 3.044 4.906 6.32 7.25 8.658h.466v1.876c2.343 0 3.51 5.15 7.021.468-.704-2.344-1.173-2.344-1.871-2.344a43.355 43.355 0 01-3.042-7.725c-.474-1.63-1.172-3.502-1.406-4.908a37.63 37.63 0 01-1.168-4.916c-.234-.698-.234-1.636-.468-2.334a28.697 28.697 0 00-.934-4.683c-.474-2.334-.706-4.678-1.17-7.25-.47-2.338-.704-4.918-1.173-7.252-.697-.708-.697-1.641-.697-2.573a13.2 13.2 0 00-.944-2.812c-.228-2.808-.698-5.616-1.166-8.424l-2.104-16.84c-.235-2.808-1.173-5.62-1.402-8.428-3.277-30.649-1.177-61.299 3.506-91.709h1.4c2.808-14.043 5.618-30.186 8.425-45.395.703 0 1.4.234 2.343.234-.942 25.503 1.636 50.771 7.251 75.571.234.469.234 1.168.234 1.64 3.506 9.59 7.257 19.185 10.298 29.01.7 2.109 1.401 4.208 2.1 6.084.702 1.874 1.64 3.974 2.807 5.614.704 1.168 1.636 2.344 2.58 3.512.696 1.166 2.098 2.34 2.098 3.505 2.344 1.875 3.516 3.98 5.386 5.854 1.407 1.632 2.573 3.508 3.98 5.148 4.911 4.676 10.059 9.125 16.14 15.21a377.32 377.32 0 01-1.64-13.574c-.462-4.21-1.165-8.42-1.635-13.101 0 0-1.17-.703-1.17-1.167 0-3.515-.47-7.027-.933-10.533-1.401-10.763-2.58-21.528-3.98-32.056 0-.938 0-1.634.235-2.572 0-.933.234-2.574.234-2.574-1.876-14.043-2.104-26.908-1.876-40.479 0-.464-.228-1.166-.228-1.64a9.064 9.064 0 01-.704-3.267c-1.876-11-.934-21.992.468-32.759.464-3.277.236-6.781.464-10.057 0-.71-.228-1.174-.228-1.876 0-15.44.698-31.118 5.38-46.093 0-.466.235-1.642.235-1.642 1.165-7.017 2.338-15.435 3.505-23.159 1.177-7.72 2.343-15.673 3.277-23.394.473-3.282 1.406-4.918 3.276-4.918.938 0 2.345.47 3.983 1.636 1.637.944 3.274 2.11 4.911 3.042a126.353 126.353 0 017.253 4.684c2.341 1.64 4.682 3.277 6.779 5.38.244.235.474.47.934.703.474.47 1.651 1.166 1.651 1.166h.46v-.234c16.372 8.195 25.507 21.994 36.494 34.868 2.11 1.402 3.518 2.808 5.156 4.675 2.57 2.812 4.208 6.317 5.615 10.067a105.641 105.641 0 0116.373 31.345c.23.94.704 2.108.948 3.04.23.942.689.474.933 2.808 1.867 2.344 3.03 5.386 4.208 8.193 1.164 2.808 2.112 5.616 3.275 8.19.69 1.4 1.163 2.568 1.867 3.978.474.933.933 1.631 1.637 2.34.948 1.167 2.111 1.87 3.978 2.333 2.571-8.651-3.504-16.84-1.177-25.034h.718c0-2.334-.718-2.334-.718-3.506-2.327-15.21-4.208-30.186-10.513-44.218-.244-1.167-.244-3.747-.244-3.747-5.616-14.037-8.417-28.314-16.617-40.707-1.867-1.406-3.03-3.75-3.505-6.084-2.57-2.338-3.978-5.146-5.371-7.954a340.573 340.573 0 01-3.748-6.085v1.632c0-.226-.474-.459-.474-.698v-.234c-6.32-9.591-14.032-18.483-21.515-27.135l-.948-.942c-.933-.933-1.867-.933-2.8-3.277-5.616-2.338-10.987-9.354-16.617-14.267-.69-.698-1.407-.938-1.867-1.64-.474-.47 0-.934-2.341-1.64-11.69-7.95-20.354-17.78-30.651-24.801-1.87-2.334-4.21-.933-5.143-4.678 30.178-1.865 59.42 1.635 89.838 3.51v-1.166h.23c14.98 2.334 29.026 5.14 42.598 10.991.46 0 .933.707 1.623.707v.464c9.364 2.105 18.254 6.32 27.144 10.527 1.881.944 4.208 3.986 6.319 1.168 1.637-2.334-.933-4.444-2.341-6.308-3.504-4.917-6.779-9.835-10.527-14.741-.704-1.173-1.867-2.344-1.867-3.517-7.023-6.78-12.41-14.502-18.484-21.283-1.867-1.876-3.979-3.984-5.86-6.32-7.009-4.682-14.261-10.062-20.351-16.615-1.163-.698-2.341-2.1-3.504-2.1-3.045 0-6.32-3.276-9.364-5.385-3.03-2.105-6.32-3.976-9.35-6.084-1.178-.7-2.341-1.174-3.504-1.87-14.29-5.387-28.552-10.293-42.828-15.68-.46 0-1.407-.235-1.407-.463 0-.006-1.164 0-1.637-.236-3.03-.234-5.386-1.166-7.023-2.807a7.704 7.704 0 01-2.571-3.509c-.23-.236-.23-.7-.474-1.168a13.287 13.287 0 01-.69-6.083c.474-7.257 0-14.509-1.163-21.525-.244-2.108-.704-3.984-1.178-6.083a204.033 204.033 0 00-1.407-5.85c-.46-1.876-.934-3.984-1.408-6.084a226.354 226.354 0 00-2.326-8.659s-.938-.232-.938-.936c-2.344-14.273-7.96-28.54-12.169-42.583-.707-1.865-.942-3.276-1.64-5.614-3.741-7.02-5.382-11.002-5.616-16.379 0-1.876 0-3.51.234-5.381 0-.937.23-1.87.23-2.573.47-2.578.942-5.385 1.876-7.953.938-3.516 2.108-7.018 3.276-10.533 0-.469 0-1.636.234-1.636h-.234c3.042-16.617 9.594-30.649 14.273-45.625 0-.233.474-.233.474-.469l.933-.933c.23-.239.46-.239.46-.473 4.452-6.083 5.615-12.157 5.156-18.008a32.148 32.148 0 00-2.585-10.068c-1.638-4.21-3.734-8.185-5.844-12.399-.236-.468-.934-.932-1.402-1.166-.234-.234-.465-.468-.465-.704-9.124-9.59-14.976-22.225-20.361-34.624-.464-1.176-1.166-2.578-1.63-3.75-.474-.468-.474-.932-.708-1.635 0-.234-.235-.464-.235-.698a11.067 11.067 0 01-.697-1.64l.23.234c0-.234 0-.234-.23-.469.23-1.401.697-2.807 1.166-4.209.474-.934.938-1.642 1.407-2.574.468-.703 1.166-1.4 1.874-2.11.224-.234.698-.468.933-.697 6.319-9.126 12.168-18.721 19.184-27.613 5.844-7.724 7.726-14.97 4.91-24.565-3.976-13.335-3.508-13.57 9.839-18.486 2.326-.932 30.648-11.7 42.109-15.205 1.867-.704 6.549-2.568 7.238-2.81.719-.232 1.178-.468 1.882-.7 1.881-.7 3.748-1.402 5.386-2.102 14.735-5.624 29.485-11 44.22-16.38.46-.235 1.164-.235 1.637-.235 13.802-7.016 28.538-11.465 43.043-16.377 1.882-.708 3.519-1.406 5.846-1.874 2.355-1.866 9.364-3.507 11.705-5.382 11.705-3.744 21.054-9.13 31.596-11.456 15.425-11.705 28.078-6.794 38.605 7.712 1.393.948 2.8 1.867 4.208 3.045 2.097 1.871 2.8 3.98 5.142 6.313 9.594 11.003 20.121 21.76 30.189 32.526zm-328.965 12.865a29.207 29.207 0 01-3.751.938c-3.506.464-5.38-1.172-7.714-5.385-21.295-38.37-42.819-76.498-64.576-114.644-2.808-4.911-3.745-7.482 3.272-9.364 138.277-40.472 276.325-80.944 414.602-121.43 1.393-.46 3.03-.69 5.845-1.394v.474c.058-.042.144-.042.216-.07-2.097 24.96-4.208 48.557-6.06 72.125l-4.223 52.177c-.474 6.32-2.327 10.283-9.12 12.639a59541.97 59541.97 0 00-328.49 113.935zm-680.62 525.5c38.836 3.268 77.204 10.992 115.813 16.379 5.15.696 10.292.932 15.21 3.504 11.699 6.085 17.548 16.851 21.992 28.312 6.782 17.549 8.891 36.265 10.058 54.985.942 14.741-2.099 27.138-14.033 36.968-8.89 7.251-16.142 15.673-19.418 27.138 14.974 0 27.84 2.57 37.666 15.21 6.084 7.95 14.037 14.504 21.763 21.285 18.007 16.153 44.447 12.403 57.084-7.949 5.616-9.127 10.997-18.487 17.081-27.378 8.418-12.398 16.611-25.733 31.586-31.118 9.126-3.037 5.142-7.48 2.1-11.232-6.084-7.72-17.31-7.958-27.37-1.87-15.443 9.36-25.975 23.165-37.2 36.504-3.276 3.976-6.55 7.95-10.997 11.227-5.62 3.974-10.527 4.21-15.445-.933-5.614-5.62-11.225-11.47-17.309-16.377-5.15-4.214-6.084-7.958-3.042-14.043 6.548-12.632 9.351-26.205 7.95-40.24-2.808-30.42-7.714-60.36-29.244-84.463-2.339-2.574-2.339-3.975.937-6.32 23.869-16.615 36.5-39.54 39.776-68.323.698-7.246-.702-13.101-6.552-15.201-5.851-1.874-9.59 3.975-12.167 8.653-5.852 10.063-13.341 19.189-20.123 28.549-10.529 14.268-25.27 17.31-40.708 14.966-55.684-8.653-111.373-14.267-167.525-17.543-2.808-.231-5.616-.933-7.95.937-17.784 13.1-35.801 25.732-47.03 45.625.696.234 1.405.7 1.87.7 1.869-.236 3.51-.7 5.383-.934 29.01-7.25 59.196-9.594 89.845-7.018zm520.115 21.759a606.331 606.331 0 00-40.482 21.758c-3.502 2.104-6.782 3.974-10.992 4.678-23.16 4.208-46.563 7.251-70.425 7.251-13.803 0-25.034-5.845-35.796-12.628-6.558-4.218-13.1-10.298-14.273-19.657 3.506-1.168 6.783.234 10.06.698 12.397 1.641 24.564 6.083 37.197 5.385 30.42-1.874 58.96-11.001 87.51-20.825 9.36-3.277 18.486-6.781 27.603-10.057 4.214-1.402 5.384-2.808 1.64-6.79-4.444-4.911-9.356-3.973-14.267-3.27-61.07 9.355-121.667 6.547-182.263-4.449-17.554-3.276-36.268-4.442-43.051-26.206-1.876-5.848-3.75-11.7-4.918-17.777-1.166-6.788-5.141-11.705-9.125-16.612-2.339-3.043-5.382-4.449-8.892-3.75-3.74.943-3.506 4.917-3.506 7.724.234 9.824.698 19.66 1.876 29.483 1.166 10.763 4.672 21.293 10.991 29.946 12.168 17.08 29.014 27.608 49.6 32.524 15.209 3.507 15.209 3.741 16.615 19.415.704 6.787 1.636 12.87 7.955 16.61 10.995 6.558 21.991 13.342 35.332 14.274 8.183.703 16.605 1.172 23.628 6.552 9.126 7.018 20.121 8.657 31.123 9.595 8.183.7 16.606.938 24.794 2.34 6.55 1.166 10.997-.934 15.675-4.917 23.164-19.186 46.093-38.605 67.852-60.128-2.568-2.807-6.318-3.74-11.461-1.167zm-192.09 189.048c-1.876-3.276-4.214-3.984-7.49-2.11-18.481 10.295-39.302 10.768-59.659 13.336-8.657 1.173-19.418-1.402-25.736 4.917-15.44 15.205-28.54 8.892-42.115-1.874-.704-.47-1.402-1.168-2.344-1.402-20.117-10.767-40.24-14.741-60.826-.468-7.724 5.384-16.85 8.652-25.977 6.552-7.251-1.876-12.865-1.406-18.48 3.74-2.809 2.573-6.553 4.677-9.826 6.787-9.124 6.084-9.124 7.018-.702 13.8 1.876 1.64 4.21 2.343 6.547 3.045 19.42 5.846 37.672 1.636 54.751-7.723 17.779-9.59 34.396-9.122 50.539 3.041 14.74 11.002 30.414 11.236 46.791 4.444 20.591-8.653 41.412-17.075 63.642-20.815 3.276-.47 6.554-1.641 9.596.932 9.357 8.656 18.248 2.573 27.134-.932 3.516-1.412 3.985-4.22 3.75-7.725-.708-7.486-6.32-11.695-9.595-17.545zm-84.932 61.06c-23.158.708-46.792 4.448-68.555 11.934-18.013 6.083-38.134 10.293-47.49 31.118-5.385 12.167-4.683 25.034-8.429 37.203 1.638 9.59 1.638 19.19 7.252 27.373 1.64 2.344 2.344 6.083 6.318 5.85 4.215-.235 5.617-3.742 6.793-6.548 4.208-8.892 5.14-18.951 7.948-28.31 4.45-15.211 11.465-27.379 27.374-34.16 16.61-7.018 33.462-13.576 50.303-20.125 3.276-1.164 6.552-1.868 9.833-1.164 20.82 3.036 42.58 2.098 61.06 14.271 1.64 1.166 3.746 1.636 6.084 1.166 7.017-1.638 7.725-3.974 3.512-9.59-15.21-21.058-37.438-29.716-62.003-29.018zm-162.846-212.442c14.042-1.406 28.08-3.272 41.884-5.146 3.74-.47 9.59.932 10.532-3.512.932-4.682-4.448-7.49-7.724-10.531-1.642-1.636-4.444-1.865-6.784-2.568-14.043-5.148-28.31-3.976-42.583-1.406-28.778 5.381-57.787 7.015-86.571 0-7.715-1.87-15.909-1.87-25.269-3.044-10.758 2.58-22.926 5.153-34.39 10.3-7.959 3.743-8.428 8.187-1.401 13.568 4.208 3.276 8.417 4.918 13.565 3.042 18.017-6.552 33.462-3.042 48.197 9.36 14.741 12.399 32.056 14.977 51.007 8.423 10.292-3.515 19.185-9.36 28.546-14.507 3.504-1.874 7.016-3.51 10.991-3.98zm-250.344 26.206c.704-13.1-1.876-24.336-12.397-31.117-7.724-4.913-10.767-11.696-13.575-19.654-3.744-10.298-4.677-21.757-13.1-29.952-2.345-2.338-3.98-7.484-8.193-5.85-4.908 1.876-9.59 4.682-10.992 11.237-4.682 21.757 5.382 42.582 27.139 53.807 9.83 5.153 17.313 12.403 21.992 22.467 1.636 3.511 1.87 10.293 7.022 9.125 5.146-1.172.932-7.49 2.104-10.063z" fill="#414754"/><path d="M102.725 1062.475c0-.475-.235-.938-.464-1.412-.469 1.174-1.177 2.574-1.64 3.987-.704 2.338-.938 4.9 0 8.425 1.64-4.688 2.807-7.963 2.104-11" fill="#2e2e2e"/><path d="M1371.529 1545.855c8.193-10.996 13.573-23.861 18.725-36.503a54.178 54.178 0 012.334-5.376c3.282-7.49 6.556-15.21 7.02-23.633v-.469c.235-2.572.938-6.083-1.64-7.016a45.401 45.401 0 00-13.565-2.104c-1.874 0-3.75.23-5.384.463-.932.236-1.866.236-2.573.469-.703.234-.934.474-1.402.699l-.473.473c-1.403 2.105 1.875 5.846.941 8.653-.701 2.573-.234 5.615-.941 8.192-.934 2.808-1.866 5.381-3.042 8.189a167.855 167.855 0 01-5.376 11.46c-7.49 13.575-17.315 25.507-28.55 36.734-4.444-9.592-3.266-17.785-.225-25.498.225-.937.698-1.636 1.167-2.574 2.338-5.151 5.381-10.064 8.189-14.975.937-1.636 2.344-3.042 3.276-4.679.234-.234.234-.707.469-.932.318-.737.4-1.558.234-2.344-.234-5.614-7.251-14.974-14.512-21.523-2.099-1.875-4.443-3.745-6.547-4.917-2.11-1.167-4.21-2.11-5.85-2.333-3.042-.474-5.85-.709-8.89-.943-8.19-.7-16.613-1.401-24.337-3.74l-2.1-.703a409.527 409.527 0 01-36.968-13.574 267.34 267.34 0 01-11.934-5.376 294.055 294.055 0 01-45.624-25.972c-10.761-7.485-21.519-14.737-32.052-22.227-7.026-4.917-14.276-9.83-21.293-14.975a604.784 604.784 0 01-31.117-23.629c-.7-.472-1.407-1.17-2.106-1.64-1.4-1.167-3.041-2.11-4.444-3.275-1.64-1.168-3.041-2.106-4.442-3.278-2.11-1.63-4.218-3.506-5.85-5.849a55.11 55.11 0 00-2.808-3.74c-.942-1.167-1.874-2.573-2.811-3.74-13.804-17.32-29.947-33.227-36.5-55.928-7.95 18.018-16.84 33.7-27.137 47.036-4.444 5.616-8.892 10.99-13.57 15.909-20.59 21.287-44.693 35.09-71.129 42.582-18.48 5.376-37.9 7.719-58.255 7.719a2330.35 2330.35 0 0116.142-13.335c1.64-1.406 3.282-2.807 4.911-4.447 16.143-14.503 34.864-26.436 48.437-43.755l2.101-1.401a4.59 4.59 0 001.874-3.272v-1.176c-.233 0-.707.234-.942.234-2.1.708-3.975 1.407-5.376 3.276-13.574 7.959-27.608 15.216-41.65 22.7-2.1 1.166-3.975 2.1-6.073 3.272-3.517 1.87-7.027 3.745-10.768 5.386-6.083 3.041-11.934 5.61-18.017 8.183-29.242 12.168-59.893 19.892-91.72 23.397-17.542 2.111-35.09 3.746-52.64 5.387a1988.776 1988.776 0 01-52.635 4.208c-11.701.7-23.4 1.401-35.098 1.876-1.637 0-3.512.226-5.153.226-3.51 0-7.016.237-10.292.237-3.512 0-7.016.236-10.293.469-3.516.236-6.782.699-10.298 1.402-1.635.234-3.276.697-5.146 1.172-29.015 7.486-57.09 17.308-83.525 30.644a388.385 388.385 0 00-21.295 11.934 173.882 173.882 0 00-13.564 9.125c-2.343 1.641-4.683 3.278-6.557 4.918-5.61 4.443-9.824 8.657-12.392 13.8-.475.942-.944 1.874-1.177 2.807-.23.469-.23.942-.464 1.406-.235.937-.47 2.103-.704 3.04-.238 1.637-.238 3.277-.238 4.913.238 5.152 1.64 11.465 4.682 18.717 11.934 29.247 26.908 56.86 44.692 83.294a52.544 52.544 0 008.652 10.059l12.866 8.189c7.491 3.276 15.919 4.682 24.577 4.682 11.923 0 18.24 3.512 22.453 14.503 12.17 31.117 33.688 54.516 60.363 72.3 1.875 1.17 3.745 2.577 5.849 3.745 2.11 1.165 3.98 2.338 5.856 3.509 8.187 4.673 15.906 9.825 23.621 15.206 2.585 1.873 4.917 3.51 7.49 5.375a305.562 305.562 0 0128.076 24.101c2.111 2.111 4.444 4.214 6.554 6.558a688.662 688.662 0 0125.268 26.9c2.104 2.343 3.98 4.683 6.085 6.793 3.98 4.677 8.187 9.125 12.162 13.798 9.833 11.234 19.185 23.164 26.908 35.795 1.168 1.641 2.11 3.516 3.043 5.152 3.51 6.079 6.548 12.397 8.89 18.95 4.68 11.933 13.102 20.121 22.698 27.138 4.911 3.747 10.297 7.023 15.673 10.293 4.21 2.344 8.187 4.683 12.631 7.027 6.083 3.043 11.7 6.782 17.784 9.824 4.443 2.334 9.125 4.444 14.042 5.85l2.803.703c.7.23 1.407.23 2.106.464 18.719 2.573 37.67 3.983 56.859 1.64 5.61-.697 11.46-1.406 17.075-2.34 5.386-.701 10.527-1.639 15.913-2.572.698 0 1.172-.235 1.871-.235a391.254 391.254 0 0015.907-3.041 446.537 446.537 0 0039.775-10.069 255.224 255.224 0 0012.637-3.975c1.168-.467 2.573-.932 3.741-1.166a248.497 248.497 0 0011.932-4.443c1.403-.474 2.81-1.173 4.21-1.642 1.64-.698 3.51-1.4 5.151-2.108l6.318-2.808a367.056 367.056 0 0016.607-8.183 461.925 461.925 0 0020.36-11.934c3.507-2.34 6.783-4.682 10.06-7.016 8.891-6.558 17.08-13.575 24.564-21.53 3.512-3.739 6.783-7.72 10.059-11.697 15.684-19.884 28.311-41.642 39.542-63.873 2.11-3.98 3.98-8.189 6.083-12.168 3.042-6.085 5.85-12.401 8.658-18.716.703-1.636 1.4-3.51 2.11-5.146 3.74-10.299 5.61-21.29 8.183-33.223-3.505 1.407-6.783 2.573-10.059 3.974-4.912 2.111-9.59 4.214-14.272 5.85a59.618 59.618 0 01-14.502 3.276c-1.319.19-2.651.269-3.984.235-5.376 0-9.59-1.635-11.46-7.719-1.874-5.381.937-7.49 4.442-8.892.943-.469 1.875-.703 3.043-.933a15.87 15.87 0 001.875-.708c1.167-.469 2.333-.932 3.276-1.4l3.507-1.407c15.907-6.084 31.82-11.93 45.62-21.754 8.657-6.083 16.85-12.641 24.339-19.892 3.043-2.807 6.086-5.615 8.887-8.656 12.868-13.57 23.634-28.775 30.885-46.792.273-.529.507-1.074.697-1.637 1.641-3.75 3.985-7.02 5.625-10.766 1.63-3.74 4.21-5.616 8.419-5.616 3.74 0 7.49-.932 11.23-1.166h6.084c21.294 0 34.629-14.268 46.553-30.416zm-831.516 32.057c-5.151 1.166-5.386-5.615-7.02-9.127-4.68-10.297-11.93-17.314-21.993-22.465-21.994-11.226-32.056-32.05-27.14-53.809 1.401-6.553 6.084-9.126 10.992-11.236 4.447-1.634 5.85 3.512 8.194 5.85 8.423 8.195 9.355 19.654 13.1 29.952 2.807 7.958 5.85 14.74 13.573 19.653 10.523 6.781 13.102 18.017 12.398 31.118-1.172 2.574 3.042 8.892-2.104 10.064zm76.273-88.21c-.473 0-.932-.468-1.874-.701 11.23-19.888 29.243-32.525 47.026-45.626 2.579-1.875 5.386-.931 7.96-.931 56.15 3.506 111.834 9.126 167.518 17.544 15.445 2.338 30.186-.704 40.708-14.972 7.021-9.365 14.277-18.49 20.127-28.548 2.807-4.68 6.546-10.76 12.168-8.658 6.074 2.108 7.486 7.959 6.548 15.21-3.282 28.779-15.909 51.709-39.776 68.325-3.276 2.333-3.276 3.74-.932 6.308 21.517 24.1 26.436 54.053 29.243 84.467 1.166 14.033-1.64 27.608-7.959 40.244-3.043 6.08-2.1 9.825 3.04 14.033 6.085 5.152 11.701 10.766 17.316 16.382 5.151 5.152 10.064 4.911 15.444.934 4.21-3.038 7.486-7.257 11-11.232 11.227-13.335 21.759-27.367 37.193-36.494 10.07-6.083 21.295-5.85 27.378 1.87 3.042 3.74 7.022 8.19-2.104 11.23-15.204 5.143-23.163 18.717-31.582 31.12-6.083 8.89-11.47 18.245-17.085 27.372-12.632 20.352-39.072 24.102-57.085 7.954-7.49-6.787-15.673-13.334-21.758-21.295-9.6-12.63-22.7-15.2-37.676-15.2 3.512-11.469 10.769-19.892 19.425-27.143 11.928-9.588 14.971-22.231 14.038-36.968-1.172-18.715-3.51-37.44-10.063-54.985-4.45-11.463-10.06-22.225-21.994-28.306-4.911-2.577-10.063-2.811-15.204-3.51-38.607-5.38-76.743-13.1-115.82-16.382-30.644-2.567-60.595-.233-90.542 6.558-1.172.932-2.807 1.168-4.678 1.4zm136.637 70.426c-18.717 6.319-36.03 3.742-51.007-8.422-14.737-12.403-30.42-15.913-48.197-9.361-5.148 1.875-9.356.234-13.566-3.042-7.025-5.614-6.556-10.058 1.402-13.569 11.465-5.146 23.858-7.72 34.39-10.298 9.595 1.172 17.554 1.172 25.27 3.043 29.017 6.792 57.792 5.38 86.57 0 14.273-2.57 28.54-3.975 42.583 1.405 2.34.937 5.141 1.168 6.783 2.57 3.277 3.04 8.655 5.847 7.723 10.53-.942 4.444-6.79 3.043-10.531 3.51-14.044 1.876-27.841 3.741-41.885 5.148-4.208.468-7.486 2.105-10.99 3.979-9.361 5.147-18.253 10.992-28.545 14.507zm261.107 232.562c-2.334.469-4.444 0-6.085-1.165-18.715-12.408-40.244-11.236-61.058-14.272-3.516-.47-6.793 0-9.834 1.165-16.841 6.548-33.692 12.867-50.304 20.122-15.907 6.783-23.159 18.95-27.372 34.16-2.808 9.36-3.745 19.186-7.953 28.31-1.407 3.042-2.575 6.314-6.788 6.549-3.975.234-4.677-3.507-6.32-5.85-5.849-8.184-5.608-18.006-7.25-27.372 3.746-12.17 3.042-25.035 8.424-37.203 9.36-20.825 29.478-25.034 47.495-31.119 21.992-7.484 45.39-11.225 68.554-11.932 24.565-.698 46.792 7.96 62.232 29.017 3.983 5.616 3.276 7.95-3.741 9.59zm31.816-74.633c-8.892 3.74-17.774 9.59-27.134.932-2.807-2.572-6.084-1.64-9.6-.932-22.226 3.74-43.05 12.16-63.632 20.826-16.147 6.782-32.056 6.548-46.797-4.448-16.142-12.169-32.758-12.872-50.533-3.042-17.085 9.354-35.335 13.573-54.749 7.714-2.344-.699-4.682-1.4-6.553-3.043-8.423-7.015-8.423-7.949.703-13.798 3.272-2.11 6.782-4.21 9.824-6.786 5.616-5.147 11-5.382 18.486-3.74 9.12 2.109 18.247-1.173 25.973-6.559 20.586-14.268 40.707-10.293 60.83.473.697.47 1.633.938 2.338 1.403 13.57 11 26.435 17.083 42.108 1.873 6.325-6.083 17.085-3.749 25.743-4.915 20.351-2.807 41.177-3.043 59.663-13.335 3.272-1.87 5.845-1.173 7.48 2.109 3.282 5.85 8.892 10.294 9.365 17.544.469 3.516 0 6.319-3.515 7.724zm130.326-153.251c-4.916 3.98-9.364 6.085-15.673 4.911-8.194-1.406-16.382-1.64-24.81-2.338-10.99-.932-21.992-2.807-31.117-9.59-7.017-5.151-15.44-5.853-23.623-6.552-13.575-.933-24.337-7.959-35.327-14.274-6.325-3.743-7.49-9.828-7.959-16.61-1.406-15.673-1.642-15.91-16.616-19.418-20.586-4.919-37.428-15.44-49.6-32.526-6.319-8.656-9.83-19.183-10.997-29.95-1.17-9.825-1.64-19.649-1.87-29.478 0-2.808-.234-6.781 3.507-7.715 3.515-.942 6.558.698 8.89 3.741 3.975 5.146 7.96 10.058 9.127 16.61 1.172 6.085 3.043 11.934 4.917 17.783 6.782 21.76 25.731 22.926 43.051 26.202 60.362 11 121.192 13.808 182.261 4.448 5.142-.709 10.057-1.64 14.267 3.276 3.51 3.976 2.573 5.142-1.635 6.784-9.355 3.275-18.482 6.785-27.608 10.059-28.55 9.828-57.09 18.954-87.51 20.824-12.63.702-24.8-3.74-37.193-5.381-3.28-.47-6.322-1.636-10.067-.702 1.402 9.36 7.725 15.443 14.278 19.652 10.756 6.782 21.758 12.633 35.79 12.633 23.868 0 47.036-2.809 70.43-7.253 3.974-.697 7.48-2.573 10.995-4.671 13.1-7.96 26.671-14.977 40.48-21.768 5.376-2.568 8.89-1.867 11.698.708-21.768 21.992-44.692 41.644-68.086 60.595zM432.386 291.553c-18.251 8.425-31.353 24.564-48.663 34.153-4.682 2.586-2.344 5.158 0 7.956l52.643 60.365c1.4 1.648 2.334 3.75 3.041 4.916 2.808-1.165 3.74-1.407 4.444-1.875 8.422-5.143 16.617-10.286 25.034-15.43 2.807-1.647 2.573-3.75 1.641-6.321-9.834-26.908-17.784-54.753-29.25-81.192-2.576-4.916-4.442-4.675-8.89-2.572zm-74.17 12.872c1.874 2.33 3.74 4.205 7.021 2.33 15.91-8.653 33.227-14.264 47.73-25.488 36.03-28.555 71.128-58.262 104.818-89.844 5.382-4.93 9.122-9.845 7.95-15.684 0-5.854 1.64-10.528-3.043-13.1-4.208-2.343-6.546 1.862-9.59 3.51-3.508 1.634-6.785 4.205-10.29 6.08-33.692 17.546-65.749 37.905-101.304 51.94-24.575 9.59-48.667 19.89-73.701 28.784-2.818.923-8.664.923-3.984 6.777 11.235 14.732 22.933 29.72 34.393 44.695zM361.26 442.7c-28.312-18.725-56.389-35.332-81.886-56.856-2.344 9.59-4.218 17.304-5.855 25.033-.697 3.267-2.338 4.915-5.38 5.384-6.782 1.165-9.59-4.916-13.101-8.652-3.277-3.054-6.318-7.97-4.443-12.417 5.843-12.63 9.36-26.425 14.268-39.296 5.151-12.871 5.62-13.34 16.616-4.916.932.71 1.87 1.407 2.802 2.345 24.575 25.5 52.178 46.783 84.233 62.936 16.143 8.183 29.01 10.059 43.052-1.875.932-.696 2.1-1.18 3.042-1.876 2.1-1.165 3.041-3.04 1.865-5.384-3.042-6.322-3.975-13.795-9.59-18.71-17.075-14.506-32.994-30.19-48.901-45.86-22.695-22.461-46.093-44.454-62.934-71.83-5.151-8.183-10.767-15.67-17.55-22.22-10.29-9.83-25.97-7.97-32.519 4.674-13.1 24.337-30.415 45.86-43.983 69.955-14.742 26.439-33.463 50.548-46.803 78.138-2.567 5.384-2.567 10.072-.223 15.684 6.542 15.912 14.964 30.886 18.715 47.963.933 3.75 1.636 7.018-3.282 8.893-4.443 1.634-6.084-.938-7.949-3.978-9.595-16.139-19.653-31.823-28.544-48.431-29.951-54.512-54.985-111.837-91.719-162.598-1.875-2.344-2.1-8.424-7.251-5.853-3.74 1.861-7.724 4.901-6.558 10.982 3.75 19.904 5.85 40.248 11.002 59.669 22.226 84.005 50.068 166.12 76.977 248.705 2.339 7.26 4.683 6.322 10.058 3.282A91971.3 91971.3 0 01333.88 458.143c8.892-4.688 17.554-9.831 27.38-15.443zM187.886 737.734c-16.842 23.157-23.623 50.293-29.01 77.67-3.74 6.549-3.27 10.768 5.387 11.706 5.376.696 10.756 2.33 16.142 3.509a3628.28 3628.28 0 00129.619 32.52c3.505 1.86 7.017 3.04 10.99 2.102 1.876-.696 1.641-2.103 1.641-3.736 0-.71 0-1.407.235-1.876l26.673-89.148c1.402-4.22 1.871-9.12 5.85-12.161 12.627-9.362 17.544-21.992 18.476-37.208.236-5.839 2.345-11.465 2.808-17.304.71-7.487 3.512-12.175 10.533-15.443 32.056-14.974 59.897-35.574 83.296-62.24 5.61-6.322 10.99-12.403 14.267-20.117 16.616-38.145 38.61-72.995 60.835-108.086 24.565-38.856 52.173-75.112 85.869-106.466 8.656-7.956 12.866-17.546 15.673-28.314 2.334-9.121-2.108-16.836-7.724-21.297-6.085-4.66-14.503-6.776-22.924-.696-35.327 26.68-75.811 43.516-115.82 61.772-17.545 8.197-38.6 15.215-47.724 36.028-.47.938-1.876 1.407-3.043 2.103-12.872 8.197-27.144 12.644-41.885 15.912-4.21.937-8.418-.696-12.866 2.102a55258.613 55258.613 0 01-251.747 156.532c-4.918 3.04-5.85 5.384-3.276 10.754 15.444 32.307 29.478 65.522 48.432 96.167 2.803 5.853 3.042 10.058-.707 15.215zM322.42 861.732c-.26.426-.42.91-.465 1.406 0-.71.23-1.165.465-1.406zm1111.578-105.756c46.798-14.505 93.823-28.542 141.089-42.35 7.487-2.103 8.652-4.902 5.839-11.935-20.344-53.574-40.944-107.148-65.267-159.33-3.281-6.776-4.219-13.326-1.179-20.358 11.238-24.791 15.216-50.534 11.934-77.67-1.634-13.567.938-27.376-.696-41.185-4.205-37.193-15.912-72.284-24.578-108.555-9.59-40.717-30.644-76.745-47.025-114.65-11.223-25.97-28.541-49.354-42.58-74.159-8.18-14.505-17.776-28.073-25.496-42.578-7.256-13.81-15.913-25.743-30.42-32.292-3.74-1.634-8.886-5.157-11.928-1.407-3.745 4.916-7.491 10.996-4.683 17.773 5.152 12.403 10.766 24.805 15.912 37.208 14.508 34.395 31.822 67.852 40.71 104.59 3.513 14.265 7.254 28.543 8.187 43.29.47 5.37-.463 11.45-5.616 13.325-5.141 1.876-6.312-4.205-9.125-7.245-10.521-11.48-24.33-22.944-40.708-16.153-4.677 2.102-10.293 2.344-15.439 1.406-3.51-.696-7.954-1.634-8.892-5.612-1.172-4.22 2.807-6.322 5.85-8.424 2.808-1.876 6.084-3.282 8.422-5.385 3.507-3.267 6.085-7.714 2.339-12.16-8.89-10.997-16.61-23.4-27.607-32.052-22.69-17.787-45.624-35.332-69.726-50.775-3.506-2.103-7.017-4.447-10.529-6.55-43.045-25.97-87.498-49.61-132.655-71.83-6.083-3.04-12.401-5.384-19.418-4.915-4.682.469-9.595.228-11.7 5.385-2.342 5.37-1.177 10.527 2.34 14.732 4.912 5.612 9.823 11.465 16.844 15.443 19.415 10.996 40.24 20.117 58.023 33.926 35.093 26.908 69.961 54.043 103.882 82.357 10.761 8.894 20.591 18.725 30.415 29.01l17.549 18.257c1.875 1.86 3.744 4.446 4.209 7.018 0 .241.234.696.234.937v2.103c-.234 1.634-1.167 3.51-3.043 5.37-5.614 5.626-11.225 2.586-16.61-.454-2.339-1.407-3.975-3.751-5.845-5.854l-2.813-2.813c-4.673-4.674-8.88-9.348-13.798-13.794-1.875-1.634-3.975-3.51-6.085-4.916-26.206-19.662-52.412-39.069-78.618-58.731-26.2-19.648-52.4-39.296-78.379-58.959-14.74-11.223-30.414-20.586-47.026-28.541-5.848-2.813-9.354-2.103-13.339 2.344-4.907 5.853-5.61 11.933-2.334 18.483 5.151 10.527 12.633 19.42 21.523 27.135 11.705 10.058 23.864 19.662 33.926 31.127 49.136 54.512 99.204 108.086 146.7 164.004 3.275 3.978 5.38 8.198 6.083 13.1 1.406 9.12-3.277 13.34-12.167 10.3a49.893 49.893 0 01-4.919-2.587c-58.72-33.215-117.684-66.445-172.66-105.741-16.152-11.465-33.46-20.586-51.479-28.542-5.616-2.586-11.7-5.626-16.372 1.392-3.276 5.157-.937 15.216 4.208 19.194 21.056 15.912 40.474 33.926 60.367 51.244 44.682 38.827 91.708 75.34 124.935 125.631 4.918 7.246 22.463 10.3 30.181 5.385 19.888-12.644 41.177-20.117 65.045-19.42h.703c1.64 0 3.276-.228 4.917-.228 1.631 0 3.032.227 4.208 1.165.7.469 1.168 1.179 1.407 2.102 2.568 5.612-3.516 7.019-6.791 9.135l-63.404 41.172c-5.382 3.509-10.064 4.447-16.148 2.813-10.058-2.572-19.65-6.564-30.41-6.322-43.984.469-87.51 5.612-131.02 12.644-9.599 1.62-19.423 2.571-28.315 7.714-5.61 3.268-7.017 8.652-6.318 14.037.469 4.446 1.64 9.362 8.193 10.527 27.138 5.384 54.043 10.996 81.185 16.608 9.59 2.344 19.415 5.157 29.482 5.853 30.885 19.42 61.535 39.538 91.013 61.061 18.247 13.34 37.43 22.93 59.657 26.68 10.293 1.634 20.361 4.675 30.42 7.246 13.339 3.51 29.247 3.51 39.306 11.224 10.06 7.728 14.742 22.944 21.059 35.105 3.742 7.714 8.419 11.465 17.076 9.362 7.25-1.875 10.059 1.875 12.403 8.425 10.995 31.34 22.454 62.467 33.224 93.58 3.268 6.791 5.385 8.667 12.161 6.55z" fill="#fff"/></svg>
